<svg xmlns="http://www.w3.org/2000/svg" width="24" height="24" viewBox="0 0 24 24">
  <g id="Group_26073" data-name="Group 26073" transform="translate(-66 -557)">
    <rect id="Rectangle_20215" data-name="Rectangle 20215" width="24" height="24" transform="translate(66 557)" fill="none"/>
    <g id="address" transform="translate(38.16 559.088)">
      <path id="Path_2387" data-name="Path 2387" d="M48.535,18.625l-.2-1.581h0l-.233-1.855V15.18l-.247-1.965a.293.293,0,0,0-.576.072l.206,1.638H41.377a20.864,20.864,0,0,0,1.869-2.1,15.8,15.8,0,0,0,1.476-2.259h1.789a.488.488,0,0,1,.48.424l.118.94a.293.293,0,0,0,.288.254h.036a.293.293,0,0,0,.252-.324l-.118-.94a1.066,1.066,0,0,0-1.057-.932h-1.5a8.629,8.629,0,0,0,.872-3.631,6.549,6.549,0,0,0-1.7-4.492A5.859,5.859,0,0,0,39.838,0a5.945,5.945,0,0,0-3.171.9.293.293,0,0,0,.31.488,5.365,5.365,0,0,1,2.861-.8A5.5,5.5,0,0,1,45.3,6.357a8.307,8.307,0,0,1-1,3.753,15.179,15.179,0,0,1-1.52,2.362,19.83,19.83,0,0,1-2.948,3.063,19.834,19.834,0,0,1-2.948-3.063,15.177,15.177,0,0,1-1.52-2.362,8.308,8.308,0,0,1-1-3.753,5.957,5.957,0,0,1,1.583-4.136.293.293,0,0,0-.421-.4,6.534,6.534,0,0,0-1.742,4.535,8.629,8.629,0,0,0,.872,3.631h-1.5a1.066,1.066,0,0,0-1.057.932l-.534,4.259v.009l-.233,1.855h0l-.2,1.581a1.08,1.08,0,0,0,1.053,1.2h15.28a1.08,1.08,0,0,0,1.056-1.2ZM38.3,14.925H36.277l.052-2.23.1.134a20.864,20.864,0,0,0,1.873,2.1Zm-6.464,4.153a.478.478,0,0,1-.117-.381l.167-1.334h6.25a.293.293,0,0,0,0-.581H31.958l.16-1.277h1.737a.488.488,0,0,0,.488-.477l.023-1.591a.293.293,0,0,0-.286-.293h0a.293.293,0,0,0-.293.286l-.022,1.5H32.192l.493-3.932a.488.488,0,0,1,.48-.424h.66l-.022,1.5a.293.293,0,0,0,.286.293h0a.293.293,0,0,0,.293-.286l.022-1.514h.548a14.552,14.552,0,0,0,.81,1.341l-.071,3.105a.488.488,0,0,0,.488.488h2.734c.405.365.662.566.669.571a.415.415,0,0,0,.508,0c.007,0,.264-.206.669-.571h6.8l.16,1.277H45.53a.488.488,0,0,0-.488.488v1.97H43.691V17.268a.488.488,0,0,0-.488-.488H39.49a.293.293,0,0,0,0,.581h3.623v1.878H32.2A.479.479,0,0,1,31.835,19.078Zm16.006,0a.478.478,0,0,1-.363.164H45.622V17.364h2.165l.167,1.334a.478.478,0,0,1-.117.381Z" transform="translate(0 0)"/>
      <path id="Path_2388" data-name="Path 2388" d="M143.066,55.8a4.549,4.549,0,1,0-4.549-4.549,4.549,4.549,0,0,0,4.549,4.549Zm0-8.518A3.969,3.969,0,1,1,139.1,51.25,3.969,3.969,0,0,1,143.066,47.281Z" transform="translate(-103.228 -44.892)"/>
    </g>
  </g>
</svg>
