<svg xmlns="http://www.w3.org/2000/svg" width="15.436" height="15.436" viewBox="0 0 15.436 15.436">
  <g id="close" transform="translate(-21.282 -17.782)">
    <path id="Rectangle_Copy_9" data-name="Rectangle Copy 9" d="M21.7,113.075,34.424,125.8a1,1,0,0,1,0,1.414l-.707.707a1,1,0,0,1-1.414,0L19.575,115.2a1,1,0,0,1,0-1.415l.707-.707A1,1,0,0,1,21.7,113.075Z" transform="translate(2 -95)" fill="#2a9488"/>
    <path id="Rectangle" d="M19.575,125.8,32.3,113.075a1,1,0,0,1,1.414,0l.707.707a1,1,0,0,1,0,1.415L21.7,127.924a1,1,0,0,1-1.414,0l-.707-.707A1,1,0,0,1,19.575,125.8Z" transform="translate(2 -95)" fill="#2a9488"/>
  </g>
</svg>
