<svg xmlns="http://www.w3.org/2000/svg" width="24" height="24" viewBox="0 0 24 24">
  <g id="Group_26067" data-name="Group 26067" transform="translate(-75 -415)">
    <g id="Group_26066" data-name="Group 26066">
      <g id="Group_26065" data-name="Group 26065" transform="translate(-15.333 11.624)">
        <g id="Group_25794" data-name="Group 25794" transform="translate(92.779 408.159)" style="isolation: isolate">
          <path id="Path_43177" data-name="Path 43177" d="M94.816,269.43H87.5a2.176,2.176,0,0,1-2.32-2.316q0-4.2,0-8.4A2.171,2.171,0,0,1,87.5,256.4c.851,0,1.7-.006,2.552,0a.328.328,0,0,0,.369-.231c.239-.577.5-1.142.75-1.716a.233.233,0,0,1,.25-.168q3.422.005,6.844,0a.234.234,0,0,1,.249.17c.246.574.509,1.14.752,1.715a.316.316,0,0,0,.345.231c.9-.012,1.792-.006,2.688,0a2.154,2.154,0,0,1,2.2,2.179q.011,4.337,0,8.674a2.161,2.161,0,0,1-2.229,2.179Q98.543,269.434,94.816,269.43Zm.021-.626q3.715,0,7.431,0a1.541,1.541,0,0,0,1.606-1.607q0-4.28,0-8.56a1.542,1.542,0,0,0-1.621-1.615c-1.031,0-2.063,0-3.094,0a.26.26,0,0,1-.283-.187c-.249-.581-.514-1.155-.761-1.736a.261.261,0,0,0-.28-.192q-3,.007-6.008,0a.232.232,0,0,0-.251.166c-.248.581-.516,1.154-.76,1.736a.3.3,0,0,1-.336.212c-1-.009-2,0-3,0A1.551,1.551,0,0,0,85.8,258.7q0,4.212,0,8.424A1.552,1.552,0,0,0,87.5,268.8Z" transform="translate(-85.178 -254.286)" fill="#282a3b"/>
          <path id="Path_43178" data-name="Path 43178" d="M198.965,349.47a4.731,4.731,0,1,1,4.736-4.63A4.738,4.738,0,0,1,198.965,349.47Zm-.032-.628a4.1,4.1,0,1,0-4.068-4.216A4.117,4.117,0,0,0,198.933,348.842Z" transform="translate(-189.307 -336.136)" fill="#282a3b"/>
          <path id="Path_43179" data-name="Path 43179" d="M413.653,335.809a.553.553,0,0,0-.578-.563q-.7-.009-1.4,0a.547.547,0,0,0-.561.555c-.007.218-.006.437,0,.655a.545.545,0,0,0,.553.561c.241.008.482,0,.723,0s.467.005.7,0a.552.552,0,0,0,.563-.554C413.661,336.246,413.66,336.027,413.653,335.809Zm-.35.572a.246.246,0,0,1-.246.246H411.71a.246.246,0,0,1-.246-.246v-.5a.246.246,0,0,1,.246-.246h1.346a.246.246,0,0,1,.246.246Z" transform="translate(-396.381 -331.584)" fill="#282a3b"/>
          <path id="Path_43180" data-name="Path 43180" d="M229.352,371.807a3.3,3.3,0,1,1-3.307,3.273A3.282,3.282,0,0,1,229.352,371.807Zm-.012.631a2.666,2.666,0,1,0,2.669,2.6A2.673,2.673,0,0,0,229.341,372.438Z" transform="translate(-219.68 -366.497)" fill="#282a3b"/>
        </g>
      </g>
      <rect id="Rectangle_20201" data-name="Rectangle 20201" width="24" height="24" transform="translate(75 415)" fill="none"/>
    </g>
  </g>
</svg>
