<svg xmlns="http://www.w3.org/2000/svg" width="24" height="24" viewBox="0 0 24 24">
  <g id="Group_26072" data-name="Group 26072" transform="translate(-55 -494)">
    <rect id="Rectangle_20214" data-name="Rectangle 20214" width="24" height="24" transform="translate(55 494)" fill="none"/>
    <g id="dateofbirth" transform="translate(57.537 496.529)">
      <path id="Path_2389" data-name="Path 2389" d="M18.63,2.663H15.081V.3a.3.3,0,1,0-.591,0V2.663H4.436V.3a.3.3,0,1,0-.591,0V2.663H.3a.3.3,0,0,0-.3.3V18.63a.3.3,0,0,0,.3.3H18.63a.3.3,0,0,0,.3-.3V2.959a.3.3,0,0,0-.3-.3Zm-.3,15.671H.591V3.254H3.845V5.915a.3.3,0,0,0,.591,0V3.254H14.49V5.915a.3.3,0,1,0,.591,0V3.254h3.252Z" transform="translate(0 0.016)"/>
      <path id="Path_2390" data-name="Path 2390" d="M21.325,58.648a1.325,1.325,0,1,1,1.325-1.325,1.325,1.325,0,0,1-1.325,1.325Zm0-1.986a.662.662,0,1,0,.662.662.662.662,0,0,0-.662-.662Z" transform="translate(-17.093 -47.844)"/>
      <path id="Path_2391" data-name="Path 2391" d="M57.325,58.648a1.325,1.325,0,1,1,1.325-1.325,1.325,1.325,0,0,1-1.325,1.325Zm0-1.986a.662.662,0,1,0,.662.662.662.662,0,0,0-.662-.662Z" transform="translate(-47.861 -47.844)"/>
      <path id="Path_2392" data-name="Path 2392" d="M21.325,92.648a1.325,1.325,0,1,1,1.325-1.325A1.325,1.325,0,0,1,21.325,92.648Zm0-1.986a.662.662,0,1,0,.662.662.662.662,0,0,0-.662-.662Z" transform="translate(-17.093 -76.904)"/>
      <path id="Path_2393" data-name="Path 2393" d="M57.325,92.648a1.325,1.325,0,1,1,1.325-1.325A1.325,1.325,0,0,1,57.325,92.648Zm0-1.986a.662.662,0,1,0,.662.662.662.662,0,0,0-.662-.662Z" transform="translate(-47.861 -76.904)"/>
      <path id="Path_2394" data-name="Path 2394" d="M93.325,58.648a1.325,1.325,0,1,1,1.325-1.325,1.325,1.325,0,0,1-1.325,1.325Zm0-1.986a.662.662,0,1,0,.662.662A.662.662,0,0,0,93.325,56.662Z" transform="translate(-78.629 -47.844)"/>
      <path id="Path_2395" data-name="Path 2395" d="M88.218,86.01a.331.331,0,0,1-.11-.019l-1.3-.461-1.3.461a.329.329,0,0,1-.442-.321l.039-1.38L84.259,83.2a.332.332,0,0,1,.166-.514l1.32-.4.781-1.138a.331.331,0,0,1,.546,0l.781,1.138,1.325.385a.331.331,0,0,1,.166.514L88.5,84.278l.039,1.38a.332.332,0,0,1-.331.34Zm-1.413-1.156a.317.317,0,0,1,.11.018l.957.34L87.844,84.2a.331.331,0,0,1,.069-.213l.619-.806-.975-.287a.331.331,0,0,1-.179-.128l-.574-.839-.574.838a.332.332,0,0,1-.179.128l-.975.287.619.808a.332.332,0,0,1,.069.211l-.028,1.016.957-.34a.317.317,0,0,1,.11-.019Z" transform="translate(-72.515 -69.839)"/>
    </g>
  </g>
</svg>
