<svg xmlns="http://www.w3.org/2000/svg" width="17.632" height="16.596" viewBox="0 0 17.632 16.596">
  <g id="dashboard" transform="translate(-29.367 -184)" style="isolation: isolate">
    <g id="Rectangle">
      <path id="Mask" d="M45.215,200.6H31.152a.357.357,0,0,1-.367-.346V190.022l-.829.587a.383.383,0,0,1-.514-.068.33.33,0,0,1-.071-.254.338.338,0,0,1,.143-.23l8.449-5.988a.383.383,0,0,1,.442,0l8.448,5.988a.337.337,0,0,1,.143.229.331.331,0,0,1-.07.255.392.392,0,0,1-.294.134.413.413,0,0,1-.22-.066l-.83-.587V200.25A.357.357,0,0,1,45.215,200.6Zm-7.032-6.967a3.076,3.076,0,0,1,3.162,2.975v3.3h3.5V189.5l-6.664-4.723L31.52,189.5v10.4h3.5v-3.3A3.076,3.076,0,0,1,38.183,193.629Zm0,.691a2.361,2.361,0,0,0-2.426,2.284v3.3h4.854v-3.3A2.362,2.362,0,0,0,38.183,194.32Z" fill="#2a9488"/>
    </g>
  </g>
</svg>
