<svg xmlns="http://www.w3.org/2000/svg" width="24" height="24" viewBox="0 0 24 24">
  <g id="Group_26071" data-name="Group 26071" transform="translate(-309 -267)">
    <path id="Icon_awesome-eye-slash" data-name="Icon awesome-eye-slash" d="M10.015,12.518A4.49,4.49,0,0,1,5.542,8.352L2.26,5.815A10.43,10.43,0,0,0,1.11,7.555a1.012,1.012,0,0,0,0,.914,10.038,10.038,0,0,0,8.9,5.552,9.721,9.721,0,0,0,2.438-.327l-1.624-1.257A4.511,4.511,0,0,1,10.015,12.518Zm9.821,1.818-3.46-2.674a10.367,10.367,0,0,0,2.543-3.194,1.012,1.012,0,0,0,0-.914A10.038,10.038,0,0,0,10.015,2,9.644,9.644,0,0,0,5.4,3.183L1.423.105a.5.5,0,0,0-.7.088L.106.984a.5.5,0,0,0,.088.7L18.606,15.918a.5.5,0,0,0,.7-.088l.615-.791a.5.5,0,0,0-.088-.7Zm-5.75-4.444-1.23-.951A2.965,2.965,0,0,0,9.222,5.126a1.491,1.491,0,0,1,.291.883,1.46,1.46,0,0,1-.048.313l-2.3-1.78A4.454,4.454,0,0,1,10.015,3.5a4.5,4.5,0,0,1,4.507,4.507,4.4,4.4,0,0,1-.435,1.881Z" transform="translate(310.97 271.176)" fill="#282a3b"/>
    <rect id="Rectangle_20207" data-name="Rectangle 20207" width="24" height="24" transform="translate(309 267)" fill="none"/>
  </g>
</svg>
