<svg xmlns="http://www.w3.org/2000/svg" width="18" height="18" viewBox="0 0 18 18">
  <g id="inspectionreports" transform="translate(-29 -227)" style="isolation: isolate">
    <g id="Mask" style="isolation: isolate">
      <path id="Fill_9" data-name="Fill 9" d="M43.481,245a.351.351,0,0,1-.14-.029.364.364,0,0,1-.227-.339v-1.181H38.932a.368.368,0,0,1-.367-.367v-1.669a5.513,5.513,0,0,1-.565.029,5.442,5.442,0,0,1-4.157-8.955h-.957v1.182a.367.367,0,0,1-.227.339.382.382,0,0,1-.14.027.37.37,0,0,1-.26-.107l-3.151-3.152a.366.366,0,0,1,0-.519l3.151-3.152a.37.37,0,0,1,.26-.107.367.367,0,0,1,.367.367v1.182h4.181a.368.368,0,0,1,.367.367v1.669A5.446,5.446,0,0,1,43.444,236a5.444,5.444,0,0,1-1.287,3.511h.956v-1.182a.363.363,0,0,1,.227-.338.369.369,0,0,1,.141-.028.364.364,0,0,1,.259.107l3.151,3.151a.367.367,0,0,1,0,.52l-3.151,3.151A.371.371,0,0,1,43.481,245Zm0-2.283a.368.368,0,0,1,.367.367v.661l2.265-2.264-2.265-2.264v.661a.368.368,0,0,1-.367.367H41.513a.372.372,0,0,1-.094-.012,5.5,5.5,0,0,0,.738-.722h-.644a.367.367,0,0,0-.094.722,5.467,5.467,0,0,1-2.12,1.054h0v1.428Zm-4.639-2.083a.371.371,0,0,0-.277.358v.424a5.435,5.435,0,0,0,.733-.127h0v-.3a.368.368,0,0,0-.367-.367l-.045,0a8.642,8.642,0,1,0-.046.006Zm-6.69-12.38-2.265,2.265,2.265,2.264v-.662a.368.368,0,0,1,.367-.367H34.6a5.507,5.507,0,0,0-.752.734h.721a.368.368,0,0,0,.032-.734,5.391,5.391,0,0,1,2.1-1.042v.2a.368.368,0,0,0,.735,0v-.329a5.428,5.428,0,0,0-.735.128v-1.43H32.519a.368.368,0,0,1-.367-.367Z" fill="#2a9488"/>
    </g>
  </g>
</svg>
