<svg xmlns="http://www.w3.org/2000/svg" width="153.966" height="154.346" viewBox="0 0 153.966 154.346">
  <g id="logo" transform="translate(-32.921 -1407.288)">
    <path id="Path_4938" data-name="Path 4938" d="M44.046,1525.463a80.093,80.093,0,0,1-9.973-25.006,39.656,39.656,0,0,1-1.129-9.816c.3-6.656-.548-13.339.717-19.979a80.281,80.281,0,0,1,7.424-21.649c.709-1.386,1.462-2.748,2.2-4.122.75-1.358,1.212-2.892,2.408-3.98a131.329,131.329,0,0,1,10.266-11.942,3.877,3.877,0,0,1,1.549-1.57c2.739-2.155,5.308-4.607,8.2-6.469a83.193,83.193,0,0,1,16.116-8.342c19.183-7.1,38.452-7.284,57.235.765,25.995,11.14,41.738,30.968,46.683,58.907,3.078,17.387-.1,33.9-8.458,49.423-.751,1.394-1.841,2.6-2.252,4.182a6.94,6.94,0,0,1-1.679,2.3,79.443,79.443,0,0,1-21.159,20.706,77.456,77.456,0,0,1-83.727.959A78.729,78.729,0,0,1,55.91,1540.1a83.507,83.507,0,0,1-9.511-11.088A9.019,9.019,0,0,1,44.046,1525.463Z" transform="translate(0 0)" fill="#10954a"/>
    <path id="Path_4939" data-name="Path 4939" d="M61.4,1491.762a12.331,12.331,0,0,1-2.408,3.981c-.2-1.332.966-2.289.968-3.622C59.958,1491.537,60.8,1491.471,61.4,1491.762Z" transform="translate(-15.711 -50.851)" fill="#d7f8e7"/>
    <path id="Path_4940" data-name="Path 4940" d="M60.892,1705.092a15.694,15.694,0,0,1,2.353,3.544C61.778,1707.908,60.612,1706.98,60.892,1705.092Z" transform="translate(-16.847 -179.629)" fill="#d4f7e5"/>
    <path id="Path_4941" data-name="Path 4941" d="M386.792,1708.4a4.747,4.747,0,0,1,1.679-2.295A1.956,1.956,0,0,1,386.792,1708.4Z" transform="translate(-213.448 -180.238)" fill="#cdf3dc"/>
    <path id="Path_4942" data-name="Path 4942" d="M92.471,1457.929c-.217.818-.9,1.173-1.549,1.57C90.766,1458.313,91.275,1457.781,92.471,1457.929Z" transform="translate(-34.968 -30.531)" fill="#d7f7e5"/>
    <path id="Path_4943" data-name="Path 4943" d="M76.367,1552.853a63.219,63.219,0,0,1-16.63-14.238,4.106,4.106,0,0,0-2.056-2.4,70.451,70.451,0,0,1-15.434-38.234c-1.609-16.828,2.016-32.481,11.3-46.6,12.065-18.359,29.036-29.466,50.832-32.7,18.97-2.816,36.451,1.313,52.268,12.246a3.236,3.236,0,0,0,2.239,1.682,63.952,63.952,0,0,1,16.656,17.266,72.761,72.761,0,0,1-3.158,86.259,4.421,4.421,0,0,0-2.3,2.748,69.026,69.026,0,0,1-27.276,19.531c-1.028.188-2.088.835-3.029-.208-.458-1.144.831-1.48,1.205-2.618-1.085.993-2.326,1.406-2.444,2.845a5.412,5.412,0,0,1-1.768,2.224,70.525,70.525,0,0,1-36.911,1.677,1.526,1.526,0,0,1-.777-1.777,2.14,2.14,0,0,1,.341-.778c.269-.359.454-.776.74-1.125.875-.689,1.461-1.329-.258-1.6-.5-.074-.853-.5-1.367-.524a1.769,1.769,0,0,0-1.316.562c-.514,1.253.54,2.08.84,3.112a1.893,1.893,0,0,1,.133.578c-.122,1.028-.719,1.125-1.539.788l.016.006c-.76-.913-1.912-.428-2.827-.792a58.09,58.09,0,0,1-15.011-6.424A4.253,4.253,0,0,0,76.367,1552.853Z" transform="translate(-5.402 -6.351)" fill="#fefefe"/>
    <path id="Path_4944" data-name="Path 4944" d="M284.2,1769.944c.614,1.459,1.935.426,2.854.81a26.881,26.881,0,0,1-6.036,2.242,4.03,4.03,0,0,1,1.583-2.26C282.989,1770.185,283.392,1769.66,284.2,1769.944Z" transform="translate(-149.646 -218.699)" fill="#e0f8ec"/>
    <path id="Path_4945" data-name="Path 4945" d="M179.93,1777.893c.838.016,1.321-.324,1.235-1.233.545-.172,1.092-.371,1.6.1a2.873,2.873,0,0,0,.372,1.893A7.405,7.405,0,0,1,179.93,1777.893Z" transform="translate(-88.673 -222.682)" fill="#e1faee"/>
    <path id="Path_4946" data-name="Path 4946" d="M364.95,1718.709c-.076-1.62.4-2.776,2.3-2.748A8.588,8.588,0,0,1,364.95,1718.709Z" transform="translate(-200.269 -186.185)" fill="#d6f6e9"/>
    <path id="Path_4947" data-name="Path 4947" d="M81.7,1716.161c1.806-.159,1.931,1.12,2.056,2.4A6.813,6.813,0,0,1,81.7,1716.161Z" transform="translate(-29.424 -186.298)" fill="#d3f6e1"/>
    <path id="Path_4948" data-name="Path 4948" d="M333.332,1452.52c-1.5.444-2.2-.181-2.239-1.682A5.057,5.057,0,0,1,333.332,1452.52Z" transform="translate(-179.852 -26.269)" fill="#d6f5e5"/>
    <path id="Path_4949" data-name="Path 4949" d="M128.793,1758.053c1.215-.146,2.206.076,2.471,1.5A6.014,6.014,0,0,1,128.793,1758.053Z" transform="translate(-57.828 -211.551)" fill="#d1f6e0"/>
    <path id="Path_4950" data-name="Path 4950" d="M172.847,1777.707c.957.21,2.336-1.085,2.827.793A5.983,5.983,0,0,1,172.847,1777.707Z" transform="translate(-84.401 -223.283)" fill="#e1faee"/>
    <path id="Path_4951" data-name="Path 4951" d="M201.755,1524.394c.332,27.71-22.637,51.307-51.239,51.172a51.078,51.078,0,0,1-51.083-51.274c.211-28.732,22.481-47.59,43.49-50.329,17.2-2.243,32.022,2.5,44.231,14.746C196.923,1498.506,201.649,1510.556,201.755,1524.394Z" transform="translate(-40.118 -39.893)" fill="#198e4f"/>
    <path id="Path_4952" data-name="Path 4952" d="M271.244,1447.129a1.95,1.95,0,0,1-2.511,1.539c-3.576-.553-3.587-.483-2.715,2.9.91,3.533,3.1,5.3,7.065,5.627-.432-1.394-1.6-2.019-2.564-2.837-.348-.3-1.438-.21-.785-1.166a1.378,1.378,0,0,1,1.892-.564,8.075,8.075,0,0,1,2.806,2.454,24.058,24.058,0,0,0,1.511,2.08c.892.97,1.805,1.845-.015,2.771-.413.21-.308.539-.057.8.45.467.879,1.012,1.669.754a14.652,14.652,0,0,1,1.7-.521c1.419-.28,2.679-.111,3.182,1.517a3.937,3.937,0,0,1-2.089,4.3,2.263,2.263,0,0,1-3.1-1.318,3.182,3.182,0,0,0-1.947-1.946,2.741,2.741,0,0,1-1.875-3.14c.231-1.173-.369-1.178-1.125-1.217-2.233-.115-4.631-.558-6.014-2.148-1.47-1.69-3.264-1.795-4.97-2.586-2.126-.988-4.673-.88-6.525-2.7-.62-.608-2.265.1-3.092-.708a5.1,5.1,0,0,0-3.579-1.5,1.86,1.86,0,0,1-1.741-1.648,2.856,2.856,0,0,1,.886-2.67c1.188-1.255,3.18-1.15,4.241-2.688.263-.382,1.335-.158,1.2.871-.135,1.045-.369,2.076-.488,3.122-.094.822-.405,1.76.587,2.3,1.007.548,1.733.042,2.432-.676a3.126,3.126,0,0,1,2.377-1.246,2.46,2.46,0,0,1,2.544,2.488c.077.714-.121,1.58.512,2.044.889.651,2.035,1.579,3.025,1.053,1.057-.561.214-1.753-.095-2.626-.781-2.215.27-3.755,2.566-3.515A19.405,19.405,0,0,1,271.244,1447.129Z" transform="translate(-128.712 -21.15)" fill="#16914d"/>
    <path id="Path_4953" data-name="Path 4953" d="M322.66,1697.961c-.709-.232-1.03.346-1.51.5-1.417.446-2.865.46-3.721-.862a3.06,3.06,0,0,1,.06-3.875c1.1-1.236,2.426-1.035,3.8-.371.545.263.989,1.257,1.826.363a6.5,6.5,0,0,0,2-3.071c.082-.429-.43-.781-.962-.76-.659.027-1.317.085-1.975.126-1.705.106-2.842-1-2.506-2.612a19.866,19.866,0,0,1,1.931-5.37c1.533,1.2,1.533,1.2.982,2.676q-.243.649-.489,1.3c-.809,2.139-.81,2.137,1.379,2.021.263-.015.528,0,.792-.006,4.486-.027,6.769-2.386,6.829-7.156a5.6,5.6,0,0,0-2.592,2.608c-.239.418-.061,1.613-1.16.982a1.352,1.352,0,0,1-.7-1.976,8.187,8.187,0,0,1,2.037-2.639c.976-.783,1.886-1.645,2.856-2.436.294-.239.389-1.032,1.022-.529.437.348,1.183.589,1.005,1.326-.645,2.677-.036,5.572-1.462,8.118-.971,1.734-1.781,3.6-4.163,3.747-.367.023-.639.149-.562.6.33,1.91-.938,3.074-2.07,4.247a2.736,2.736,0,0,0-.82,2.951,4.394,4.394,0,0,1-2.622,5.347c-.6.228-1.256.533-1.759-.24-.595-.916.2-1.081.722-1.435C322.088,1700.669,322.953,1699.6,322.66,1697.961Z" transform="translate(-171.209 -162.507)" fill="#17904d"/>
    <path id="Path_4954" data-name="Path 4954" d="M138.149,1719.007c.622.116,1.484.056,1.1,1.1-.2.538-.423.956.2,1.342.506.313.886.028,1.262-.214,1.267-.816,1.819-.576,1.5.988-.073.355-.069.645.338.785a1.188,1.188,0,0,0,1.256-.336c.419-.373.742-.979,1.488-.608.859.425.234.995.189,1.52a1.6,1.6,0,0,0,1.354,1.694,25.25,25.25,0,0,0,2.7.523c1.367.275,2.808-.7,4.054.194a28.172,28.172,0,0,0-4.711-2.3c.536-1.973,1.861-1.849,3.393-1.318,2.04.708,3.433,2.409,5.3,3.421.85.461.058,1.727-.766,1.833-3.685.477-7.413,1.629-11.066-.2-.173-.087-.5-.058-.549-.173-.956-2.218-3.509-2.1-5.184-3.052-1.4-.793-2.768-2.2-4.74-2.4-1.769-.175-2.2-2.718-3.421-3.344-1.456-.747-3.029-1.1-3.857-2.663a2.678,2.678,0,0,1,.367-2.99c1.55-1.968,3.218-3.843,4.837-5.756.352-.415.675-.855,1.269-.289.481.457.75.848.193,1.48-1.263,1.437-2.466,2.926-3.7,4.389-.633.749-1.136,1.533-.393,2.468a1.916,1.916,0,0,0,2.6.623c1.133-.538,1.884-.4,1.276,1.164a1.614,1.614,0,0,0,.886,2.125A2.3,2.3,0,0,0,138.149,1719.007Z" transform="translate(-57.162 -180.473)" fill="#18904e"/>
    <path id="Path_4955" data-name="Path 4955" d="M131.046,1457.959c-.723-.494-.828-1.406-1.371-2.023s-.242-1.05.3-1.476c.721-.572,1.037-.039,1.4.448,1.128,1.521,2.233,3.059,3.406,4.543.452.571.85,1.44,1.9.893.864-.452,1.612-.955,1.441-2.1-.084-.562-.4-1.145.448-1.459.8-.3.843.375,1.124.759.749,1.025,1.247.8,1.511-.325a9.315,9.315,0,0,1,1.581-3.382,3.8,3.8,0,0,1,3.942-1.715,2.944,2.944,0,0,1,2.423,2.352,3.48,3.48,0,0,1-1.612,3.591c-2.07,1.583-4.315,2.871-7.069,2.52-.71-.09-.872.139-1.127.7a2.608,2.608,0,0,1-3.566,1.543c-1.2-.489-1.293.065-1.49.9a4.7,4.7,0,0,1-1.911,3.109c-.646.426-1.208.553-1.749.03-.605-.586.025-1.035.323-1.475,1.466-2.172,1.457-2.23-1.085-3.119-.872-.305-1.767-.543-2.649-.818s-1.677-.747-1.328-1.815c.436-1.334,1.121.269,1.716-.034.176-.09.476.06.719.1.63.193,1.285-.1,1.928.136a4.132,4.132,0,0,0,1.957.567C131.761,1459.57,131.439,1458.75,131.046,1457.959Z" transform="translate(-56.019 -27.002)" fill="#16914e"/>
    <path id="Path_4956" data-name="Path 4956" d="M207.149,1751.571a2.779,2.779,0,0,1-2.045-2.183c-.3-1.893.62-3.507,2.256-3.829,1.511-.3,2.857.606,3.194,2.5.219,1.236.551,1.7,1.86,1.518,1.346-.185,1.592-.963,1.525-2.068-.11-1.845-.213-3.69-.35-5.533-.057-.766.077-1.252,1-1.305.974-.056.852.615.9,1.174.154,1.843.285,3.688.425,5.532.062.815.183,1.648,1.114,1.893a3.7,3.7,0,0,0,2.864-.36c.833-.538-.173-1.241-.291-1.887-.111-.607-1.508-1.1-.162-1.878,1.285-.742,1.506.364,1.808,1.052.626,1.428,1.672,3.11.407,4.438a4.755,4.755,0,0,1-5.01,1.016c-2.3-.879-4.119,1.093-6.262.577-.16-.039-.492.7-.765,1.061-1.6,2.125-3.876,2.841-5.9,1.849-.591-.289-1.213-.558-1.016-1.452.247-1.121.985-.551,1.557-.482a3.508,3.508,0,0,0,2.5-.11C206.953,1752.6,208.533,1752.469,207.149,1751.571Z" transform="translate(-102.383 -201.09)" fill="#18914e"/>
    <path id="Path_4957" data-name="Path 4957" d="M201.364,1451.883c-3.117-.339-4.036-1.108-4.107-3.2a2.763,2.763,0,0,1,2.007-3.032c1.568-.5,2.443.537,3.26,1.63.42.564.219,1.667,1.452,1.533,1.1-.12,1.267-1.005,1.657-1.744,1.036-1.964,2.344-2.576,3.743-1.771a4.06,4.06,0,0,1,1.317,4.935c-.762,1.246-1.924,1.182-3.148.8a3.579,3.579,0,0,0-4.68,2.131,4.744,4.744,0,0,1-5.265,2.924c-.654-.144-1.33-.275-1.3-1.184.035-1.059.783-.8,1.424-.8A3.64,3.64,0,0,0,201.364,1451.883Z" transform="translate(-98.547 -22.72)" fill="#1d9251"/>
    <path id="Path_4958" data-name="Path 4958" d="M279.5,1734.941l.477-.451c.488-1.4-.8-2.949.362-4.292a2.47,2.47,0,0,1,3.131-.958,4.041,4.041,0,0,1,2.55,3.021,1.7,1.7,0,0,1-1.286,2.155c-1.779.3-2.685,1.631-3.8,2.727a3.086,3.086,0,0,1-3.188,1.057c-.86-.257-1.179.357-1.637.786a10.376,10.376,0,0,1-5.719,2.914,4.125,4.125,0,0,1-4.788-3.65c-.082-.522-.29-1.069.465-1.277.6-.166.8.223.988.685.812,2,2.363,2.017,4.1,1.514a19.5,19.5,0,0,0,3.513-1.777c1.237-.646.463-1.906,1.016-2.727.565-.549,1.016-.253,1.5.156A1.624,1.624,0,0,0,279.5,1734.941Z" transform="translate(-140.296 -194.06)" fill="#189050"/>
    <path id="Path_4959" data-name="Path 4959" d="M63.991,1593.624c.195,3.8.195,3.8,2.492,6.57-2.718.132-4.57,1.3-5.107,4.255-1.223-2.374-2.506-4.324-5.72-3.543,1.9-2.037,3.015-4.061,1.579-6.813C59.766,1595.841,61.919,1595.485,63.991,1593.624Z" transform="translate(-13.713 -112.394)" fill="#13954b"/>
    <path id="Path_4960" data-name="Path 4960" d="M388.222,1599.828c-.08.167-.116.423-.246.486-3.268,1.587-3.27,1.583-4.866,4.036-1.231-1.083-1.318-3.456-3.617-3.292-.411-.48-1.37-.688-.814-1.645,1.817-1.44.671-3.281.416-5.439,2.431,1.742,4.5,1.935,6.363-.107.455-.079.6.235.581.569A7.5,7.5,0,0,0,388.222,1599.828Z" transform="translate(-208.453 -112.534)" fill="#11964c"/>
    <path id="Path_4961" data-name="Path 4961" d="M109.934,1493.162a4.857,4.857,0,0,1-3.858-2.56.7.7,0,0,1,.188-1.027c.4-.328.665-.119,1.029.118,2.36,1.535,2.977,1.457,5.031-.569a20.845,20.845,0,0,0,1.493-1.578c1.81-2.206,1.8-2.211-.68-3.556-.433-.235-1.089-.33-.7-1.107.337-.673.744-1.047,1.555-.661a10.361,10.361,0,0,1,3.084,2.11,1.249,1.249,0,0,1,.419,1.43c-1.512,3.055-3.318,5.857-6.677,7.2A5.062,5.062,0,0,1,109.934,1493.162Z" transform="translate(-44.037 -45.104)" fill="#1c9150"/>
    <path id="Path_4962" data-name="Path 4962" d="M108.864,1708.2a5.5,5.5,0,0,1-4.753-4.141,4.256,4.256,0,0,1,2.869-4.473c.592-.243,1.125-.445,1.518.284.4.747-.289.864-.658,1.178-1.719,1.472-1.794,2.514-.308,4.16,1.342,1.49,2.52,1.412,3.663-.273.332-.49.566-1.045.872-1.553.249-.412.35-1.105,1.122-.682.554.3.964.635.814,1.391C113.648,1705.872,110.739,1708.227,108.864,1708.2Z" transform="translate(-42.908 -176.175)" fill="#208e52"/>
    <path id="Path_4963" data-name="Path 4963" d="M188.708,1447.133c.021.552-.38.7-.873.79s-.9.1-1.074-.514c-.892-3.151-1.806-6.3-2.7-9.449-.159-.561.185-.884.669-1.013.422-.112.982-.311,1.165.316C186.847,1440.53,187.764,1443.808,188.708,1447.133Z" transform="translate(-91.141 -17.816)" fill="#209356"/>
    <path id="Path_4964" data-name="Path 4964" d="M134.875,1466.935a4.956,4.956,0,0,1,1.9,3.489c-1.674-.508-3.031-1.481-4.632-1.734C132.991,1468.008,134.842,1468.887,134.875,1466.935Z" transform="translate(-59.848 -35.978)" fill="#dcf6e7"/>
    <path id="Path_4965" data-name="Path 4965" d="M286.587,1765.932q-.8.4-1.6.791c-.179-.958,2.142-3.78,2.921-3.488.579.217.733.728.228,1.232S287.105,1765.446,286.587,1765.932Z" transform="translate(-152.036 -214.687)" fill="#448d69"/>
    <path id="Path_4966" data-name="Path 4966" d="M181.1,1749.829c1.732.454,3.6.609,5.007,2.379a8.238,8.238,0,0,1-4.35-.27c.555-.146,1.15-.219,1.488-.8C182.878,1750.121,181.106,1751.405,181.1,1749.829Z" transform="translate(-89.378 -206.614)" fill="#dffce8"/>
    <path id="Path_4967" data-name="Path 4967" d="M398.784,1599.683c-1.882-1.045-2.935-2.49-2.367-4.765a.93.93,0,0,0-.4-1.2c1.368-.5,1,.878,1.051,1.237.174,1.3.081,2.6,1.583,3.291C399.284,1598.541,398.8,1599.193,398.784,1599.683Z" transform="translate(-219.015 -112.389)" fill="#e0f7e8"/>
    <path id="Path_4968" data-name="Path 4968" d="M109.372,1489.23c-.044.8-.382,1.238-1.075,1.255a1.121,1.121,0,0,1-1.271-1.16,1.047,1.047,0,0,1,1.047-1.165A1.281,1.281,0,0,1,109.372,1489.23Z" transform="translate(-44.698 -48.779)" fill="#5ba581"/>
    <path id="Path_4969" data-name="Path 4969" d="M247.54,1774.361a1,1,0,0,1-1.074,1.121,1.09,1.09,0,0,1-1.227-1.189,1.07,1.07,0,0,1,1.1-1.121C247.115,1773.135,247.5,1773.606,247.54,1774.361Z" transform="translate(-128.066 -220.692)" fill="#4b946d"/>
    <path id="Path_4970" data-name="Path 4970" d="M277,1737.63a1.135,1.135,0,0,1,1.013-1.571c.617-.1.969.328,1.178.848a.994.994,0,0,1-.426,1.206c-.82.65-1.307.046-1.794-.515Z" transform="translate(-147.185 -198.299)" fill="#579e78"/>
    <path id="Path_4971" data-name="Path 4971" d="M273.4,1739.076a5.449,5.449,0,0,1-.343,1.117.95.95,0,0,1-1.344.415,1.086,1.086,0,0,1-.587-1.481.93.93,0,0,1,1.289-.549,9.161,9.161,0,0,1,1.013.529Z" transform="translate(-143.623 -199.777)" fill="#3d8e62"/>
    <path id="Path_4972" data-name="Path 4972" d="M126.987,1697.225c-.2.583-.507,1.115-1.213,1.074a1.009,1.009,0,0,1-1.016-1.2,1.073,1.073,0,0,1,1.172-1.085C126.674,1696.033,126.911,1696.562,126.987,1697.225Z" transform="translate(-55.39 -174.151)" fill="#409067"/>
    <path id="Path_4973" data-name="Path 4973" d="M186.994,1767.493c.81-.452,1.6-.4,1.849.549.273,1.046-.392,1.519-1.432,1.46C186.353,1769.024,185.927,1768.414,186.994,1767.493Z" transform="translate(-92.561 -217.103)" fill="#49996d"/>
    <path id="Path_4974" data-name="Path 4974" d="M113.972,1484.911c-.085.588-.364,1.008-1.011.986a1.04,1.04,0,0,1-1.1-1.135.9.9,0,0,1,1-.982A1.061,1.061,0,0,1,113.972,1484.911Z" transform="translate(-47.613 -46.137)" fill="#378d5e"/>
    <path id="Path_4975" data-name="Path 4975" d="M149.715,1721.854a5.039,5.039,0,0,1,1.154-.031.915.915,0,0,1,.827,1.118,1.062,1.062,0,0,1-1.061.963.978.978,0,0,1-1.049-.948,4.109,4.109,0,0,1,.161-1.142Z" transform="translate(-70.364 -189.704)" fill="#2e8b60"/>
    <path id="Path_4976" data-name="Path 4976" d="M146.627,1719.377c-.6.36-1.2.938-1.9.229a1.032,1.032,0,0,1-.194-1.257.926.926,0,0,1,1.112-.565c.869.2,1.094.821.951,1.634Z" transform="translate(-67.244 -187.267)" fill="#408f65"/>
    <path id="Path_4977" data-name="Path 4977" d="M184.1,1773.609a1.756,1.756,0,0,1-1.6-.1l.007.01a1.525,1.525,0,0,1-.2-1.655,1.2,1.2,0,0,1,1.7-.42,1.092,1.092,0,0,1,.446,1.65Z" transform="translate(-90.018 -219.526)" fill="#3c966a"/>
    <path id="Path_4978" data-name="Path 4978" d="M180.672,1766.665c.279-.847.9-.981,1.669-.8.909,1.621.735,1.942-1.191,2.2C180.613,1767.73,180.312,1767.309,180.672,1766.665Z" transform="translate(-89.026 -216.245)" fill="#378a5e"/>
    <path id="Path_4979" data-name="Path 4979" d="M181.917,1767.888c1.614.116,1.986-.542,1.2-1.921.607-.085.731.533,1.119.767a1.464,1.464,0,0,0,.417,2.008c-.036.423.085.9-.407,1.163-.06-1.4-.683-1.841-1.966-1.146C181.9,1768.572,181.623,1768.349,181.917,1767.888Z" transform="translate(-89.798 -216.343)" fill="#b5f3ce"/>
    <path id="Path_4980" data-name="Path 4980" d="M180.593,1769.111l.359.87q.01.786.021,1.571c-1.5-1.626-1.751-2.681-.853-3.567Q180.356,1768.547,180.593,1769.111Z" transform="translate(-88.473 -217.565)" fill="#e1faee"/>
    <path id="Path_4981" data-name="Path 4981" d="M294.967,1742.71c-.635,1.274-1.551,1.252-2.414.354-.433-.452-.739-.831-1.4-.627.425-.849,1.054-.515,1.617-.235A3.754,3.754,0,0,0,294.967,1742.71Z" transform="translate(-155.763 -201.828)" fill="#d6f2e1"/>
    <path id="Path_4982" data-name="Path 4982" d="M301.622,1732c-.727,1.38.7,2.941-.362,4.292C301.039,1734.83,300.166,1733.314,301.622,1732Z" transform="translate(-161.578 -195.858)" fill="#d6f2e1"/>
    <path id="Path_4983" data-name="Path 4983" d="M377.371,1607.859l.814,1.644c-.618.022-1.484.3-1.767-.227C376.064,1608.614,377.021,1608.334,377.371,1607.859Z" transform="translate(-207.144 -120.981)" fill="#328f5f"/>
    <path id="Path_4984" data-name="Path 4984" d="M149.762,1738.03c-.94,1.1-1.88,1.143-2.821,0Z" transform="translate(-68.775 -199.497)" fill="#c4efd6"/>
    <path id="Path_4985" data-name="Path 4985" d="M213.359,1768.136c.435,0,1.123-.081,1.029.479a1.343,1.343,0,0,1-1.421,1.046C212.83,1769.083,213.9,1768.815,213.359,1768.136Z" transform="translate(-108.593 -217.654)" fill="#bcecd0"/>
    <path id="Path_4986" data-name="Path 4986" d="M190.01,1488.112a47.475,47.475,0,0,1,12.657,14.4,2.075,2.075,0,0,1-.917,1.644,54.745,54.745,0,0,1-4.9,3.871c-.6.423-1.246.755-1.971.222-1.224-1.155-2.459-2.028-4.177-.774-.848.62-1.5-.09-2.053-.644a53.887,53.887,0,0,1-6.182-6.688,13.288,13.288,0,0,0-3.971-3.828c-1.692-1.015-2.313-.906-3.459.744-1.811,2.605-3.329,5.4-5.1,8.03-.8,1.186-1.446,2.748-3.321,1.293-.444-.344-.887.08-1.2.422-1.577,1.748-3.677,3.057-4.466,5.469-.343,1.047-1.21,1.354-2.013.613-2.627-2.42-5.115-2.4-7.752.008-.923.841-1.719.315-2.023-.834-.659-2.492-2.89-3.693-4.452-5.442a1.055,1.055,0,0,0-1.453-.124c-1.354.89-2.037.041-2.7-.976-1.728-2.66-3.3-5.418-5.1-8.036-1.524-2.227-2.193-2.343-4.292-.757a15.457,15.457,0,0,0-3.371,3.329,46.807,46.807,0,0,1-5.8,6.5c-.9.869-1.784,1.282-2.989.531a2.264,2.264,0,0,0-2.9.44c-.386.347-.668.84-1.273.859-.15-1.731.959-3.01,1.67-4.4,13.111-25.568,47.346-34.235,70.664-17.916A3.869,3.869,0,0,0,190.01,1488.112Z" transform="translate(-49.404 -42.514)" fill="#fefefe"/>
    <path id="Path_4987" data-name="Path 4987" d="M206.824,1644.253c-3.292,3.563-7.668,5.345-12.016,7.058a46.7,46.7,0,0,1-17.025,3.227,8,8,0,0,1-1.349-.219c-.029-1.4,1.312-1.973,1.828-3.044a6.8,6.8,0,0,0,1.5-2.427c.138-.637.705-.939,1.077-1.395a5.5,5.5,0,0,0,.546-1.149c.055-.169.121-.332.192-.495a8.682,8.682,0,0,0,.88-4.687c-.054-.542-.093-1.052-.8-1.1-1.462-.273-2.254.294-2.345,1.812-.11,1.832-1.558,3.348-1.264,5.281.036.743-.469,1-1.056,1.19-2.1,1.019-3.155,3.251-5.145,4.4-.533.307-.889,1.012-1.678.712-.241.1-.507.322-.721.28-6.942-1.365-13.769-3.042-19.546-7.457-.1-.074-.136-.223-.2-.336.159-1.251,1.088-2.083,1.729-3.052a16.1,16.1,0,0,0,2.3-12.27,10.261,10.261,0,0,0-2.915-5.283c-1.833-1.893-3.845-3.628-5.533-5.643-1.529-1.823-3.393-3.711-1.918-6.495,1.734-2.184,4.371-2.921,6.688-4.173,1.467-.528,2.968-.944,4.475-1.339a3.794,3.794,0,0,1,2.259.141c1.27.571.175,1.816.741,2.591.395,1.238-.164,2.642.678,3.8a10.743,10.743,0,0,0,4.838,3.633,39.075,39.075,0,0,0,6.624,2.59c5.834,2.105,11.966,3.28,17.69,5.744a47,47,0,0,1,13.632,8.3,26.263,26.263,0,0,1,5.721,7.771C207.033,1642.861,207.348,1643.54,206.824,1644.253Z" transform="translate(-66.293 -120.782)"/>
    <path id="Path_4988" data-name="Path 4988" d="M110.61,1534.576c1.92-2.5,1.93-2.52,5.019-1.206.64.273.83-.167,1.14-.446a39.312,39.312,0,0,0,6.418-6.976,14.765,14.765,0,0,1,4.149-3.913c1.941-1.3,2.659-1.157,3.972.852,1.838,2.814,3.65,5.648,5.373,8.533.728,1.219,1.339,1.881,2.508.513.316-.371.71-.63,1.14-.105,1.918,2.344,5.085,3.767,5.295,7.636,1.279-.841,2.413-1.467,3.4-2.269,1.235-1,2.365-1.318,3.578-.046a1.69,1.69,0,0,0,.323.228c.882.576,1.76,1.6,2.649,1.615,1.255.014.637-1.705,1.291-2.4a56.6,56.6,0,0,1,4.727-4.779c1-.838,1.3,1.026,2.623.885l5.47-8.612a15.011,15.011,0,0,1,1.066-1.664c.906-1.078,1.809-1.753,3.308-.644a17.736,17.736,0,0,1,4.462,4.134c1.826,2.7,4.271,4.844,6.54,7.143.29.293.495.659,1.127.283,2.366-1.409,3.071-1.234,4.644.861a.882.882,0,0,1-.312,1.357c-2.772,1.706-5.463,3.6-8.786,4.147-.812-.243-1.163-1.039-1.795-1.5-.415-.3-.835-.809-1.385-.368-1.057.848-1.536-.008-2.055-.656a5.355,5.355,0,0,1-1.366-2.813c-.189-2.537-1.755-4.5-2.627-6.745-.567-1.461-1.3-1.557-2.319-.393a22.129,22.129,0,0,0-3.451,5.955c-.373.866.209,1.372.879,1.736a6.266,6.266,0,0,1,2.387,2.3,3.806,3.806,0,0,0,2.034,1.467,3.953,3.953,0,0,1,2.786,3.475c-.373.932-1.087,1.049-1.947.815-2.73-1.235-4.9-3.426-8.027-4.811.256,1.408,1.113,1.611,1.9,1.965,1.6.712,3.307,1.349,3.587,3.451-.787,1.164-1.837,1.109-2.977.651a18.3,18.3,0,0,0-1.665-1.052,5.114,5.114,0,0,1-3.38-3.329,1.966,1.966,0,0,0-1.564-1.374,1.922,1.922,0,0,0-2.289,1.13c-.4.977.417,1.519,1.138,1.774a4.134,4.134,0,0,1,2.95,3.592c-.07.848-.578.953-1.268.751a11.927,11.927,0,0,1-4.318-2.661,6.511,6.511,0,0,0-5.119-1.976c-.585,0-1.171,0-1.756,0a6.954,6.954,0,0,0-5.54,2.133,20.288,20.288,0,0,1-4.283,2.839c-.439.267-1.008.5-1.442-.026-.362-.436-.058-.874.148-1.285a6.341,6.341,0,0,1,3.109-3.435c.876-.367,1.715-1.1.848-2.147a1.866,1.866,0,0,0-2.817-.276,3.4,3.4,0,0,0-.919,1.506,3.4,3.4,0,0,1-1.722,2.092c-1.957.746-3.21,2.266-4.485,3.781a6.686,6.686,0,0,1-3.041,2.131,2.1,2.1,0,0,1-.565.03c-.919-.531-2.117-.609-2.729-1.654-.011-1.015.716-1.325,1.507-1.556a4.221,4.221,0,0,0,2.377-1.329c1.417-1.872,2.99-3.521,5.36-4.182.438-.121,1.01-.493.774-.969-.358-.723-.907-.137-1.3.106-2.3,1.427-4.479,3.038-6.694,4.593a8.724,8.724,0,0,1-1.141.784c-.581.283-1.251.745-1.807.155-.485-.515-.061-1.144.254-1.629,1.173-1.8,2.1-3.807,4.531-4.412,1.2-.3,1.516-1.76,2.391-2.565.752-.693,2.19-.85,2.223-2.043.028-1.024-.825-1.908-1.3-2.845a12.21,12.21,0,0,0-2.224-3.716c-.927-.869-1.873-.954-2.306.352-.8,2.415-2.756,4.348-2.818,7.078a4.554,4.554,0,0,1-1.681,3.058c-.276.267-.626.73-.984.471-1.686-1.227-2.212.4-2.928,1.227a26.539,26.539,0,0,0-1.935,3.218,5.688,5.688,0,0,1-1.2,1.563c-.667.512-1.3,1.4-2.183,1.146s-.48-1.36-.726-2.119a23.232,23.232,0,0,1-4.594,2.437c-.644.269-1.327.669-2.065.2l-.381-.355a11.255,11.255,0,0,1,3.9-5.461,6.621,6.621,0,0,0,2.238-2.67c-2.373.1-3.6,2.027-5.377,2.921C108.292,1538,109.456,1536.291,110.61,1534.576Z" transform="translate(-45.174 -68.706)" fill="#020202"/>
    <path id="Path_4989" data-name="Path 4989" d="M126.455,1652.477c-3.337-1.744-5.8-4.5-8.236-7.251a48.353,48.353,0,0,1-11.082-22.13,10.272,10.272,0,0,1-.1-1.566c.816-.784,1.855-.534,2.823-.6,2.04-.146,4.095.293,6.124-.167a6.861,6.861,0,0,1,3.417.05.782.782,0,0,1,.491.781c-.223,2.568,1.154,4.345,2.845,6.027,3.035,3.02,6.153,5.978,7.971,9.986,2.053,4.528.494,11.329-3.364,14.467A1.667,1.667,0,0,1,126.455,1652.477Z" transform="translate(-44.703 -128.647)" fill="#fefefe"/>
    <path id="Path_4990" data-name="Path 4990" d="M308.379,1633.138a48.608,48.608,0,0,1-12.662,19.832c-.468.446-.833,1.045-1.544,1.182a1.371,1.371,0,0,1-.749-.6,35.148,35.148,0,0,0-7.69-8.543c-.813-1.635-.5-3.349-.342-5.05.037-.39.393-.743.283-1.138-.487-1.744.518-1.736,1.738-1.537a2.756,2.756,0,0,0,1.558-.1,3.286,3.286,0,0,0-.093-4.154c-1.069-1.282-2.147-2.558-4.13-2.658-1.355-.068-1.289-1.161-.789-2.177,2.117-.6,4.157.153,6.217.379,5.217.572,10.431,1.2,15.606,2.09C308.109,1631.061,308.48,1631.4,308.379,1633.138Z" transform="translate(-151.223 -133.107)" fill="#fefefe"/>
    <path id="Path_4991" data-name="Path 4991" d="M292.94,1618.677c.044-.994-.312-1.484-1.413-1.68-5.414-.959-10.871-1.595-16.321-2.291-1.684-.215-3.367-.434-5.052-.638-.63-.077-1.3-.352-1.842.245a.7.7,0,0,1-.787.114.918.918,0,0,1-.141-.134c-2.207-3.019-3.428-3.14-6.242-.613a1.589,1.589,0,0,1-.606.066c-.842-.373-2.248.453-2.5-1.173,1.529-1.521.9-3.442.957-5.229.023-.719-.271-1.432-.19-2.149.065-.579-.085-1.487,1.05-1.121a3.252,3.252,0,0,0,2.546.875c5.084-.117,10.173-.123,15.254-.2,5.4-.078,10.825.135,16.238.26a2.316,2.316,0,0,1,1.454.56A45.951,45.951,0,0,1,292.94,1618.677Z" transform="translate(-135.784 -118.647)" fill="#bcb8b7"/>
    <path id="Path_4992" data-name="Path 4992" d="M190.277,1575.587c-.85,1.84.262,3.716-.093,5.572a5.368,5.368,0,0,0-.007,1.576c.13,1.161-.53,1.5-1.511,1.56a1.581,1.581,0,0,1-2.044.107c-.84-1.255-.408-2.679-.526-4.031-.108-1.236.239-2.5-.213-3.707-.995-2.362-3.514-2.923-5.237-4.423a.505.505,0,0,1,.2-.322.545.545,0,0,1,.559-.061,187.394,187.394,0,0,1-19.913,1.856c-.587.083-1.13-.27-1.718-.17a3.18,3.18,0,0,1-1.272.484c-.545.1-1.37-.15-1.474.618-.092.683.45,1.165,1.209,1.384.586-.753.282-2.039,1.423-2.428,1.3.8.473,2.107.748,3.152-.844.91.727.637.59,1.2a1.4,1.4,0,0,0,.408,2.065,9.793,9.793,0,0,1-1.748,3.638.914.914,0,0,1-.831-.1c-.875-1.448-.132-3.1-.566-4.62-.42.1-.547.608-.983.641-.514-.051-1.023-.155-.395-.75a.808.808,0,0,0,.083-1.3c-.653-.442-1.428-.654-2.073-1.1.077-.845-.963-1.079-1.034-1.846a42.51,42.51,0,0,0-7.344.065,4.779,4.779,0,0,1-1.929,0c-.7-.555-2.076-.7-1.3-2.148a37.96,37.96,0,0,1,6.427-.67c3.145.029,6.261-.45,9.4-.6,6.027-.515,12.073-.918,18.058-1.794,11.158-1.633,22.283-3.439,32.9-7.505,3.821-1.464,7.617-2.967,11.317-4.712a2.26,2.26,0,0,1,1.709-.293c-.09,1.536,1.293,2.759.927,4.354.046,1.311-1.326,1.211-1.894,1.911-1.133.841-2.67,0-3.786.918a73.892,73.892,0,0,1-13.425,4,144.871,144.871,0,0,1-16.841,2.834,9.363,9.363,0,0,1,3.7.013c1.506.611,1.559,1.626.651,2.752C191.835,1574.444,191.3,1575.314,190.277,1575.587Z" transform="translate(-66.432 -90.212)" fill="#626365"/>
    <path id="Path_4993" data-name="Path 4993" d="M106.57,1552.479c2.64-.8,5.221-1.711,7.18-3.972.308,1.128-.214,2.172.217,3.158,2.138-.693,2.931-2.548,3.833-4.275a7.888,7.888,0,0,1,4.109-4.18l.169,1.585a3.908,3.908,0,0,0,.525-.367c1.345-1.378,1.613-3.147,2.157-4.919a24.433,24.433,0,0,1,3.367-6.934c.416-.585.787-.2,1.146.086a6.8,6.8,0,0,1,2.137,2.289c.569,1.188,1.22,2.336,1.841,3.5,1.265,2.367,1.283,2.39-.994,3.855a4.029,4.029,0,0,0-1.352,1.4c-.646,1.114-1.349,2.082-2.83,2.135a1.931,1.931,0,0,0-1.531,1.113c-.817,1.349-1.706,2.655-2.686,4.165a4.341,4.341,0,0,0,2.536-1.039c2.538-1.776,5.083-3.54,7.664-5.252.431-.285.986-1.147,1.606-.182a1.236,1.236,0,0,1-.544,1.974c-2.965.753-4.834,2.793-6.539,5.1a1.567,1.567,0,0,1-1.44.494,1.833,1.833,0,0,0-1.944,1.331,3.04,3.04,0,0,1-1.008,1.657c-.727.693-1.114,1.764-2.235,2.023-3.793-.049-7.559.478-11.347.5a6.609,6.609,0,0,0-2.329.25c-1.083.109-2.191.408-3.157-.4.038-1.092.092-2.183.108-3.275A1.738,1.738,0,0,1,106.57,1552.479Z" transform="translate(-43.549 -75.386)" fill="#fdfdfd"/>
    <path id="Path_4994" data-name="Path 4994" d="M261.982,1590.974a8.412,8.412,0,0,1,1.443-1.823c1.178-.851,1.02-1.633.176-2.542a4.424,4.424,0,0,1,4.156-.546,9.412,9.412,0,0,1,2,1.018c-.532-.573-.756-1.123.091-1.637,6.411-1.232,12.915-1.844,19.329-3.033a3.572,3.572,0,0,1,1.567.085,48.413,48.413,0,0,1,6.884,3.379,28.793,28.793,0,0,1,.069,6.652c-5.8-.078-11.611-.278-17.4-.219-5.531.056-11.075.043-16.609.258C262.474,1592.612,261.739,1592.377,261.982,1590.974Z" transform="translate(-138.137 -105.599)" fill="#fefefe"/>
    <path id="Path_4995" data-name="Path 4995" d="M245.259,1549.767a119.139,119.139,0,0,1-32.159,10.782c-7.874,1.491-15.8,2.53-23.745,3.438-2.609.3-5.25.313-7.876.457-.621.19-1.271.527-1.679-.339.95-.894,2.229-.845,3.346-.91a183.694,183.694,0,0,0,22.122-2.8c10.3-1.869,20.285-4.745,29.435-10.018a54.06,54.06,0,0,0,6.308-4.442c.563-.442,1.049-1.038,1.881-.944C244.013,1546.419,244.36,1548.23,245.259,1549.767Z" transform="translate(-88.595 -83.055)" fill="#393a3c"/>
    <path id="Path_4996" data-name="Path 4996" d="M233.241,1542.058c-8.118,7.4-18.007,11.163-28.414,13.88a155.044,155.044,0,0,1-26.949,4.395c-2.549.2-5.089.52-7.632.785a19.163,19.163,0,0,1-5.889.616c-.4-.305-.79-.612-.377-1.176,2.131-.8,4.4-.522,6.6-.776,3.647-.421,7.312-.714,10.958-1.161a51.66,51.66,0,0,0,6-.731c2.564-.221,5.075-.825,7.632-1.1.477.205.888.288.86-.457a17.744,17.744,0,0,0,5.086-1.121c1.048.474,2.036.58,2.842-.456a9.567,9.567,0,0,1,2.716-.742c.7.183,1.354.2,1.76-.556,2.28-1,4.628-1.818,6.978-2.63a2.171,2.171,0,0,0,1.506-.324c2.182-1.163,4.379-2.3,6.553-3.476.553-.3,1.244-.562,1.14-1.422.847.472,1.35-.211,1.9-.611a40.768,40.768,0,0,0,5.7-4.88C232.688,1540.692,232.536,1541.6,233.241,1542.058Z" transform="translate(-78.946 -80.119)" fill="#626365"/>
    <path id="Path_4997" data-name="Path 4997" d="M151.95,1605.774a1.977,1.977,0,0,1,2.048,1.193c-.713.117-1.419-.344-2.134-.023-1.818-.111-3.365.8-5.014,1.328-2.222,1.024-4.593,1.8-6.249,3.763-1.182,1.841-.346,3.4.7,4.915a27.3,27.3,0,0,0,5.324,5.569c6.975,5.678,5.179,15.661.927,20.642a1.637,1.637,0,0,1-1.491.8c-.45.14-.854.2-.842-.476a16.672,16.672,0,0,0,4.386-7.385c1.153-4.45-.352-8.18-3.223-11.462-1.862-2.128-3.945-4.061-5.851-6.153-1.614-1.771-3.01-3.681-2.107-6.321a.511.511,0,0,1-.048-.5c.461-.547.792-1.188,1.223-1.76a18.351,18.351,0,0,1,5.011-2.469c.27-.074.545-.132.817-.2.268-.1.533-.2.794-.319C148.091,1606.336,149.875,1605.326,151.95,1605.774Z" transform="translate(-63.466 -119.656)" fill="#090a09"/>
    <path id="Path_4998" data-name="Path 4998" d="M247.332,1663.263c-1.612-5.415-5.376-9.138-9.786-12.309-6.379-4.586-13.694-7.025-21.165-9.1-2.152-.6-4.254-1.375-6.38-2.07-.085-.369.144-.531.429-.658a1.821,1.821,0,0,1,.588-.08,20.59,20.59,0,0,1,2.877.681c5.67,1.741,11.426,3.22,16.876,5.62a18.651,18.651,0,0,1,2.986,1.53,8.939,8.939,0,0,0,1.451.868,24.211,24.211,0,0,1,4.769,3.172c.27.25.567.468.858.693a27.5,27.5,0,0,1,7.014,8.893,2.619,2.619,0,0,1,.384,2.242C248.04,1663.1,247.8,1663.386,247.332,1663.263Z" transform="translate(-106.801 -139.792)" fill="#eff1f1"/>
    <path id="Path_4999" data-name="Path 4999" d="M105.407,1608.9a22.3,22.3,0,0,1-.42-6.04c3.356-1.261,5.809-.605,7.818,2.085a4.647,4.647,0,0,1-.125,3.532c-1.937,1.1-4.114.925-6.215,1.138A1.071,1.071,0,0,1,105.407,1608.9Z" transform="translate(-43.442 -117.592)" fill="#fbfcfc"/>
    <path id="Path_5000" data-name="Path 5000" d="M112.54,1601.389c-1.915-2.777-4.769-2.192-7.487-2.089.013-.139.026-.276.038-.415,1.808-.259,3.662.062,5.048-.121a31.875,31.875,0,0,1-5.063-.149l0-1.213c.939-.936,2.173-.819,3.318-.83,2.774-.026,5.561-.582,8.324.119.874.735.168,1.426-.09,2.107a21.333,21.333,0,0,1-.987,1.919c-.835,1.336-.437,2.838-.571,4.266a2.173,2.173,0,0,1-.377,1.148c-1.079.494-1.267-.305-1.38-1.031a9.756,9.756,0,0,1-.028-3.34C113.571,1600.32,112.62,1601.82,112.54,1601.389Z" transform="translate(-43.509 -114.032)" fill="#5d6461"/>
    <path id="Path_5001" data-name="Path 5001" d="M211.738,1714.611a26.334,26.334,0,0,0,4.973-4.52,4.223,4.223,0,0,1,1.506-1.095c.862.658,2.178.261,2.9,1.247.115.961-.774,1.538-.921,2.4L218,1715.52C215.843,1715.694,213.623,1716.3,211.738,1714.611Z" transform="translate(-107.859 -181.985)" fill="#edbb22"/>
    <path id="Path_5002" data-name="Path 5002" d="M148.264,1653.119c4.361-4.241,5.468-9.445,4.4-15.23-.4-2.162-1.939-3.692-3.4-5.229-2.126-2.245-4.623-4.146-6.362-6.748-1.068-1.6-1.732-3.275-.262-5.032.4-.118.5.052.417.416-.831,1.537-.343,2.92.526,4.237a32.921,32.921,0,0,0,4.843,5.2c7.292,7.113,7.534,15.5.649,23.193C148.5,1653.97,148.161,1653.767,148.264,1653.119Z" transform="translate(-65.67 -128.812)" fill="#ececec"/>
    <path id="Path_5003" data-name="Path 5003" d="M332.793,1572.67c1-1.143,2.521.105,3.572-.789a2.8,2.8,0,0,1,2.8.788c.435.077.757.3.72.773a8.826,8.826,0,0,0,.79,4.3c-1.855.9-2.607-.773-3.725-1.592-.592-.87-1.367-.543-2.135-.335-2.114.573-2.2.5-2.146-1.768A6.269,6.269,0,0,1,332.793,1572.67Z" transform="translate(-180.798 -99.233)" fill="#525554"/>
    <path id="Path_5004" data-name="Path 5004" d="M107.637,1563.685a8.073,8.073,0,0,1,6.356-3.612c-1.952,3.308-5.3,5.456-7.118,8.821-.264,0-.73.267-.594-.336C106.65,1566.912,106.722,1565.18,107.637,1563.685Z" transform="translate(-44.234 -92.157)" fill="#f5f6f5"/>
    <path id="Path_5005" data-name="Path 5005" d="M294.6,1681.635c-1.262-4.023-3.91-7.11-6.79-10.038l-.957-.971c.391-.411.84-.246,1.285-.132a27.7,27.7,0,0,1,7.979,9.233Z" transform="translate(-153.167 -158.681)" fill="#0b0c0b"/>
    <path id="Path_5006" data-name="Path 5006" d="M338.541,1581.464c1.157.675,2.029,1.895,3.557,1.853.246.671,1.247,1.509-.391,1.762a30.9,30.9,0,0,1-6.692-2.875C336.009,1581.095,337.141,1580.642,338.541,1581.464Z" transform="translate(-182.217 -104.805)" fill="#080b08"/>
    <path id="Path_5007" data-name="Path 5007" d="M106.113,1618.33c1.67.49,3.28-.122,4.916-.268.707-.064,1.414-.125,2.121-.187.665.509.838,1.717,2.053,1.441a.548.548,0,0,1,.462.238c-3.04.69-6.126.17-9.186.352Q106.3,1619.119,106.113,1618.33Z" transform="translate(-44.148 -127.022)" fill="#bfc2bf"/>
    <path id="Path_5008" data-name="Path 5008" d="M117.032,1596.07a68.321,68.321,0,0,0-11.913.388q0-.6,0-1.191l3.087-.026c3.415-.158,6.825-.4,10.243-.467C118.668,1595.963,117.873,1596.042,117.032,1596.07Z" transform="translate(-43.549 -113.088)" fill="#4e5150"/>
    <path id="Path_5009" data-name="Path 5009" d="M344.8,1570.381c-.9-.4-1.982-.125-2.8-.788.3-1,1.682-.629,2.023-1.583C345.357,1568.446,344.554,1569.585,344.8,1570.381Z" transform="translate(-186.427 -96.944)" fill="#39403b"/>
    <path id="Path_5010" data-name="Path 5010" d="M299.981,1500.729c-1.622.261-2.859-.013-2.835-2.04A9.3,9.3,0,0,1,299.981,1500.729Z" transform="translate(-159.375 -55.131)" fill="#daf8e8"/>
    <path id="Path_5011" data-name="Path 5011" d="M105.094,1602.075h5.5v.272h-5.481A.5.5,0,0,1,105.094,1602.075Z" transform="translate(-43.526 -117.492)" fill="#3d4140"/>
    <path id="Path_5012" data-name="Path 5012" d="M253.53,1450.889c-.033.62-.094,1.31-1.062,1.182-.582-.077-1.34-.178-1.237-.939.11-.806.881-1.056,1.629-1.155C253.54,1449.888,253.615,1450.3,253.53,1450.889Z" transform="translate(-131.675 -25.742)" fill="#d1f4e1"/>
    <path id="Path_5013" data-name="Path 5013" d="M272.6,1458.719a1.19,1.19,0,0,1,1.238,1.209c.017.376,0,.876-.528.838a1.639,1.639,0,0,1-1.573-1.212C271.6,1459,272.2,1458.893,272.6,1458.719Z" transform="translate(-144.037 -31.022)" fill="#cdf6de"/>
    <path id="Path_5014" data-name="Path 5014" d="M328.958,1493.272a1.143,1.143,0,0,1,1.123,1.094c.041.563-.126,1.126-.752,1.125-.8,0-.974-.772-1.159-1.365S328.468,1493.368,328.958,1493.272Z" transform="translate(-178.064 -51.864)" fill="#c4f2d7"/>
    <path id="Path_5015" data-name="Path 5015" d="M323.4,1722.746c-.131.806-.738.988-1.256,1.165a.792.792,0,0,1-1.127-.7.9.9,0,0,1,.883-1.062A1.735,1.735,0,0,1,323.4,1722.746Z" transform="translate(-173.768 -189.908)" fill="#c4f2d6"/>
    <path id="Path_5016" data-name="Path 5016" d="M168.279,1460.836a4.53,4.53,0,0,1,2.855-3.684,1.4,1.4,0,0,1,1.793.368c.381.613-.207,1.112-.652,1.463A8.941,8.941,0,0,1,168.279,1460.836Z" transform="translate(-81.645 -29.983)" fill="#daf4e5"/>
    <path id="Path_5017" data-name="Path 5017" d="M213.655,1757.5a1.4,1.4,0,0,1,1.224,1.313c.091.477-.138.761-.663.636-.637-.152-1.346-.279-1.429-1.1C212.731,1757.8,213.115,1757.549,213.655,1757.5Z" transform="translate(-108.488 -211.243)" fill="#d4fae0"/>
    <path id="Path_5018" data-name="Path 5018" d="M225.015,1452.033c-.534-.146-1.318-.207-1.459-.962-.079-.417.37-.864.88-.914a1.113,1.113,0,0,1,1.323,1.126C225.8,1451.723,225.672,1452.08,225.015,1452.033Z" transform="translate(-114.982 -25.852)" fill="#c7f5da"/>
    <path id="Path_5019" data-name="Path 5019" d="M205.02,1452.659c.147.571-.334.553-.689.578-.651.044-1.345.056-1.535-.776a.76.76,0,0,1,.643-1.006C204.3,1451.328,204.7,1451.922,205.02,1452.659Z" transform="translate(-102.447 -26.63)" fill="#c4f1d7"/>
    <path id="Path_5020" data-name="Path 5020" d="M308.841,1734.848c-.242.689-.859.716-1.427.778-.5.053-.939-.049-.875-.713.069-.7.44-1.07,1.17-.971A1.154,1.154,0,0,1,308.841,1734.848Z" transform="translate(-165.037 -197.021)" fill="#d8f6e5"/>
    <path id="Path_5021" data-name="Path 5021" d="M212.486,1496.01c4.313,2.365,4.309,9.083.742,11.214-.826.495-1.861.661-2.439,1.547l.046.091a4.957,4.957,0,0,1-4.784-.1,9.589,9.589,0,0,1-4.032-4.053c-1.226-2.53-.441-6.364,2.453-8.6a28.824,28.824,0,0,1,3.311-1.176A6.868,6.868,0,0,1,212.486,1496.01Z" transform="translate(-101.66 -52.806)" fill="#f8bc18"/>
    <path id="Path_5022" data-name="Path 5022" d="M217.063,1495.449c-1.569.212-2.848-1.157-4.5-.749-1.166.289-2.191,1.217-3.513.841C211.371,1493.4,215.107,1493.354,217.063,1495.449Z" transform="translate(-106.237 -52.246)" fill="#edca70"/>
    <path id="Path_5023" data-name="Path 5023" d="M213.027,1529.928l4.785.1a2.182,2.182,0,0,1-3.429,1.22C213.88,1530.914,213.245,1530.6,213.027,1529.928Z" transform="translate(-108.636 -73.974)" fill="#f8f6d5"/>
    <path id="Path_5024" data-name="Path 5024" d="M224.945,1527.546c-.184-2.087,1.336-1.489,2.438-1.547A2.221,2.221,0,0,1,224.945,1527.546Z" transform="translate(-115.816 -71.582)" fill="#ebc94f"/>
    <path id="Path_5025" data-name="Path 5025" d="M233.967,1694.481l-.129.373c-.566.328-1.068.76-1.665,1.042a2.483,2.483,0,0,1-2.235-.581c-.975-.177-.7-.732-.389-1.293a14.352,14.352,0,0,0,1.555-5.458c.241-1.98,1.861-.523,2.793-.856,1.648,1.046,1.1,2.645.789,4C234.474,1692.62,234.211,1693.555,233.967,1694.481Z" transform="translate(-118.427 -169.018)" fill="#f5bb1c"/>
    <path id="Path_5026" data-name="Path 5026" d="M233.309,1676.539c-3.437.458-4.8-.469-5.759-3.685-.232-.774.087-.936.663-1.044a3.231,3.231,0,0,1,3.6,1.788A8.158,8.158,0,0,1,233.309,1676.539Z" transform="translate(-117.351 -159.512)" fill="#efbc26"/>
    <path id="Path_5027" data-name="Path 5027" d="M217.511,1663.393c-3.563,1.164-5.3-1.875-8.139-2.847C212.591,1659.736,214.122,1660.294,217.511,1663.393Z" transform="translate(-106.432 -152.559)" fill="#d8b038"/>
    <path id="Path_5028" data-name="Path 5028" d="M193.032,1630.569l-.5.436a34.51,34.51,0,0,1-9.279-3.964,4.535,4.535,0,0,1-2.231-2.348.72.72,0,0,1,.81-.133c2.884,2.48,6.456,3.6,9.9,4.967C192.244,1629.777,192.9,1629.85,193.032,1630.569Z" transform="translate(-89.333 -131.013)" fill="#d4d5d5"/>
    <path id="Path_5029" data-name="Path 5029" d="M180.457,1615.627l-.718-.035c-1.185-.271-.719-1.228-.781-1.94-.067-.787-.048-1.582-.066-2.373.588-.523.1-2.015,1-1.865,1.216.2.5,1.528.6,2.347.138,1.172.09,2.366.121,3.551A.239.239,0,0,1,180.457,1615.627Z" transform="translate(-88.047 -121.912)" fill="#858385"/>
    <path id="Path_5030" data-name="Path 5030" d="M202.018,1654.787c-3.142.805-5.234-.434-7.586-1.681C197.27,1652.341,199.323,1653.807,202.018,1654.787Z" transform="translate(-97.42 -148.144)" fill="#d4b34c"/>
    <path id="Path_5031" data-name="Path 5031" d="M173.574,1641.367c-2.079.636-3.389-.611-5.054-1.853C170.894,1638.933,172.017,1640.691,173.574,1641.367Z" transform="translate(-81.791 -140.004)" fill="#bea256"/>
    <path id="Path_5032" data-name="Path 5032" d="M229.218,1707.1c.832-.289,1.463.59,2.28.391a1.266,1.266,0,0,1,1.242.269c-.174.617-1.254.427-1.152,1.292a.594.594,0,0,1-.811-.042c-.987-.211-2.051-.247-2.713-1.195C228.554,1707.751,229.166,1707.879,229.218,1707.1Z" transform="translate(-117.706 -180.807)" fill="#211204"/>
    <path id="Path_5033" data-name="Path 5033" d="M144.356,1615.763l-.417-.417c1.671-1.964,3.975-2.809,6.321-3.582a.447.447,0,0,1,.646.1C148.7,1613.132,146.176,1613.853,144.356,1615.763Z" transform="translate(-66.964 -123.278)" fill="#979893"/>
    <path id="Path_5034" data-name="Path 5034" d="M187.218,1648.312c-2.269.547-3.713-.234-5.359-1.278C183.987,1646.326,185.315,1647.537,187.218,1648.312Z" transform="translate(-89.837 -144.481)" fill="#c3ab5f"/>
    <path id="Path_5035" data-name="Path 5035" d="M241.019,1694.663a5.242,5.242,0,0,1,.532-3.167c.7-1.174.151-2.489-.6-3.607.992-.3,1.3.2,1.335,1.094A9.35,9.35,0,0,1,241.019,1694.663Z" transform="translate(-125.479 -169.2)" fill="#dbbb51"/>
    <path id="Path_5036" data-name="Path 5036" d="M161.067,1633.178c2.015-.365,2.466,1.04,3.779,1.6C162.759,1635.618,162.225,1634.188,161.067,1633.178Z" transform="translate(-77.295 -136.216)" fill="#c7a755"/>
    <path id="Path_5037" data-name="Path 5037" d="M160.515,1610.045l-.646-.1c1.641-.653,3.215-1.593,5.1-1.2Z" transform="translate(-76.573 -121.46)" fill="#7a777a"/>
    <path id="Path_5038" data-name="Path 5038" d="M166.045,1616.112a3.155,3.155,0,0,1,2.784-1.1A2.564,2.564,0,0,1,166.045,1616.112Z" transform="translate(-80.298 -125.296)" fill="#574f3e"/>
    <path id="Path_5039" data-name="Path 5039" d="M233.665,1712.006l.812.042a4.084,4.084,0,0,1-1.544,2.41C232.579,1713.463,233.485,1712.843,233.665,1712.006Z" transform="translate(-120.594 -183.8)" fill="#d4b043"/>
    <path id="Path_5040" data-name="Path 5040" d="M159.579,1627.974c.66.021.834.575.994,1.025.13.366-.213.585-.571.527-.605-.1-.78-.607-.891-1.115C159.034,1628.055,159.337,1628.028,159.579,1627.974Z" transform="translate(-76.108 -133.113)" fill="#af9962"/>
    <path id="Path_5041" data-name="Path 5041" d="M237.962,1707.13a1,1,0,0,1-1.242-.269c.2-.921.91-.891,1.619-.853Z" transform="translate(-122.928 -180.173)" fill="#d8aa46"/>
    <path id="Path_5042" data-name="Path 5042" d="M269.664,1546.253a13.408,13.408,0,0,1-6.978,2.63c-.809-1.519-1.551-3.1-3.65-3.139a1.408,1.408,0,0,1-1.17-.961,6.931,6.931,0,0,0-3.212-3.081c-.411-.219-1.211-.433-.782-1.109,1.605-2.531,2.267-5.632,4.792-7.622.9-.711,1.482-.533,1.8.3.968,2.52,2.9,4.623,3.12,7.471a6.348,6.348,0,0,0,2.364,4.21c.55-.4.066-1.009.421-1.521A6.519,6.519,0,0,1,269.664,1546.253Z" transform="translate(-133.199 -75.543)" fill="#fdfdfd"/>
    <path id="Path_5043" data-name="Path 5043" d="M180.98,1572.893a138.882,138.882,0,0,1-17.852,1.554c-.554-.237-.828-.572-.4-1.149a9.689,9.689,0,0,0,3.75-3.131,6.428,6.428,0,0,1,3.665-2.818c1.355-.324,1.416-1.615,1.864-2.591.852-1.856,2.213-2.305,3.929-1.235,1.567.978,1.6,2.7-.178,3.254-2.391.745-2.839,2.771-3.819,4.545,2.158-1.34,4.55-2.27,6.33-4.157,1.244-1.319,2.911-1.334,4.559-1.364C181.189,1567.9,181.892,1570.606,180.98,1572.893Z" transform="translate(-78.171 -93.893)" fill="#fbfbfb"/>
    <path id="Path_5044" data-name="Path 5044" d="M208.966,1577.163c0-1.109.087-2.227-.024-3.323a3.7,3.7,0,0,1,1.873-3.768l2.129-.041c2.6,1.054,3.284,3.224,1.994,6.332A22.468,22.468,0,0,1,208.966,1577.163Z" transform="translate(-106.157 -98.163)" fill="#242022"/>
    <path id="Path_5045" data-name="Path 5045" d="M243.115,1568.878c-.774,1.225-3.454,1.817-5.086,1.121-.591-1.389-1.161-2.76-2.912-3.1a1.991,1.991,0,0,1-1.682-1.931c0-1.122,1.059-1.545,1.945-1.993,1.008-.511,2.337.055,2.46.564C238.549,1566.451,241.044,1567.423,243.115,1568.878Z" transform="translate(-120.946 -93.784)" fill="#f9f9f9"/>
    <path id="Path_5046" data-name="Path 5046" d="M221.061,1576.362a19.223,19.223,0,0,1,.016-2.348,3.707,3.707,0,0,0-2.01-3.983,6.721,6.721,0,0,1,5.24,2.014c1.12,1.191,2.777,1.878,4.2,2.79C226.18,1576.115,223.59,1576.087,221.061,1576.362Z" transform="translate(-112.28 -98.163)" fill="#f8f8f8"/>
    <path id="Path_5047" data-name="Path 5047" d="M258.6,1567.372a2.382,2.382,0,0,1-2.716.741c-1.21-1.406-2.485-2.711-4.444-3.021a2.117,2.117,0,0,1-1.268-.865,1.262,1.262,0,0,1,.064-1.633c.458-.728.952-.068,1.282.141C253.9,1564.245,256.247,1565.818,258.6,1567.372Z" transform="translate(-130.876 -93.476)" fill="#f4f4f4"/>
    <path id="Path_5048" data-name="Path 5048" d="M152.562,1587.035l1.132-1.182a4.1,4.1,0,0,1,2.452,1.288c.287,1.587-1.211,1.526-1.977,2.145a1.207,1.207,0,0,1-.9-.093C152.562,1588.63,152.072,1587.993,152.562,1587.035Z" transform="translate(-72.046 -107.707)" fill="#1e864c"/>
    <path id="Path_5049" data-name="Path 5049" d="M156.976,1590.975c.168-1.131,1.964-.609,1.952-1.922.152-.01.3-.021.458-.03a1.124,1.124,0,0,0,.4,1.149l.363.8c-.66.671-1.5.338-2.267.406A1.117,1.117,0,0,1,156.976,1590.975Z" transform="translate(-74.828 -109.619)" fill="#427d5c"/>
    <path id="Path_5050" data-name="Path 5050" d="M129.239,1618.094l-.546-.094a.217.217,0,0,1,.058-.364l.124-1.256c1.217-1.317,2.582-1.03,3.982-.366a1.574,1.574,0,0,1-.034,1.739.355.355,0,0,1-.142.32Z" transform="translate(-57.724 -125.562)" fill="#b9b9b9"/>
    <path id="Path_5051" data-name="Path 5051" d="M261.552,1627.039a.776.776,0,0,0,.386-.014c1.516-1.091,4.582-.732,6.409.749l.649.05c.573.391.512,1.261,1.861,1.1,1.489-.178,2.471,1.719,3.594,2.833,1.161,1.15.72,2.656,1.106,3.967.1.332-.344.831-.894.88a3.117,3.117,0,0,1-2.242-.063,2.079,2.079,0,0,0-2,.2c-1.8.088-3.6.528-5.415.061a.962.962,0,0,1-.513-.295,7.41,7.41,0,0,1-.467-2.55c.175-1.549-.814-1.086-1.624-.931-1.324.066-2.758.3-3.18-1.481A4.825,4.825,0,0,1,261.552,1627.039Z" transform="translate(-136.466 -132.158)" fill="#0f964a"/>
    <path id="Path_5052" data-name="Path 5052" d="M285.944,1651.371c1.48-1.049,2.93.274,4.4.054a2.36,2.36,0,0,1-2.4.111c-.375-.177-.807-.363-1.083-.06-.373.41-.335.749.373.914.28.064-.144.508-.222.786-.53,1.879-.875,3.765.112,5.616l-1.286.132a.614.614,0,0,1-.671-.4c.3-.518-.024-1.087.135-1.618a31.8,31.8,0,0,0,.023-3.652C285.29,1652.551,285.2,1651.821,285.944,1651.371Z" transform="translate(-152.147 -146.979)" fill="#46906b"/>
    <path id="Path_5053" data-name="Path 5053" d="M240.491,1632.152c.643.865.067,1.884.355,2.792a1.736,1.736,0,0,1-.035,2.475c-1.537.414-2.626-.684-3.826-1.245-5.216-2.438-10.752-3.921-16.216-5.626a2.251,2.251,0,0,1-.715-.544,2.87,2.87,0,0,1,1.172-3.758,17.263,17.263,0,0,0,2.752-2.424,25.723,25.723,0,0,1,8.974.79l1.957.03c.8.819,2.058-.031,2.851.8-1.383.976-1.362,2.671-1.978,4.028-.329.724.29,1.369,1.136,1.475.644.081,1.3.053,1.954.074A2.285,2.285,0,0,1,240.491,1632.152Z" transform="translate(-112.675 -130.558)" fill="#fcfdfd"/>
    <path id="Path_5054" data-name="Path 5054" d="M272.56,1625.547a12.332,12.332,0,0,0-6.409-.75,2.934,2.934,0,0,1,4.823-1.292C271.616,1624.1,272.68,1624.363,272.56,1625.547Z" transform="translate(-140.68 -129.931)" fill="#1c7843"/>
    <path id="Path_5055" data-name="Path 5055" d="M211.935,1613.344c-3.189.31-6.335-.6-9.522-.336-.284.4.118,1.273-.831,1.226-.539-.5-.387-1.227-.612-1.822-.512-1.358-1.307-2.447-2.978-2.392a3.654,3.654,0,0,1-1.171-.068c-2.731-.789-2.872-.733-4.3,1.748-.264.461-.489.941-1.073,1.076-1.984.041-3.987-.354-5.943.279-.349.054-.6-.04-.631-.438.439-1.24.555-2.633,1.684-3.545a1.484,1.484,0,0,1,.846-.791c1.154-.359,2.165-1.134,3.425-1.2,5.782-.466,11.565-.9,17.364-1.031a4.382,4.382,0,0,0,3.3-.993c.94,1.038.209,2.251.316,3.374C211.969,1610.058,211.905,1611.706,211.935,1613.344Z" transform="translate(-91.658 -119.29)" fill="#bbb9b8"/>
    <path id="Path_5056" data-name="Path 5056" d="M220.035,1598.977c-.01.7.206,1.491-.958,1.538-6.68.268-13.36.566-20.04.853-.075-1.165,1.018-1.163,1.64-1.6.8-.566,1.67-1.02,2.5-1.533,1.12-.654,2.05-1.58,3.186-2.214,2.217-.774,4.6-.406,6.845-.995a1.43,1.43,0,0,1,1.28.3C217.124,1595.353,218.416,1597.414,220.035,1598.977Z" transform="translate(-100.196 -113.21)" fill="#fcfcfc"/>
    <path id="Path_5057" data-name="Path 5057" d="M287.588,1577.208a5.268,5.268,0,0,0-3.526.74c-2.737-.239-5.337.659-8.005.988-4.452.548-8.891,1.211-13.336,1.826-.458.481-1.221.306-1.682.78-1.44-.674-2.874-.1-4.311.016-2.051-.188-4.1.568-6.188-.014,11.047-2,22.159-3.588,32.719-7.558.459,1.221.459,1.221.328,3.08,1.228.025,2.227-.983,3.507-.728C287.793,1576.476,287.8,1576.7,287.588,1577.208Z" transform="translate(-131.264 -100.548)" fill="#3a3a3c"/>
    <path id="Path_5058" data-name="Path 5058" d="M132.549,1596.29c.516-.271.864-.844,1.528-.85a1.228,1.228,0,0,1,1.164-.257c.3.134.535.311.433.7l1.608,1.564c.22.213.525.339.671.632.541,2.579-.277,3.3-3.1,2.747-1.114-.424-2.292.081-3.417-.227a.814.814,0,0,1-.588-.59C131.029,1598.591,131.964,1597.52,132.549,1596.29Z" transform="translate(-59.065 -113.307)" fill="#17934d"/>
    <path id="Path_5059" data-name="Path 5059" d="M186.666,1602.735c-.546-.174-1.167-.3-.806-1.122.819-1.236,1.141-2.932,2.978-3.233,1.8.045,3.621-.834,5.409.085.3.819-.308,1.117-.833,1.464-1.075.505-2.305.745-3.072,1.787C189.193,1602.332,187.851,1602.249,186.666,1602.735Z" transform="translate(-92.185 -115.06)" fill="#090507"/>
    <path id="Path_5060" data-name="Path 5060" d="M163.09,1602.557l-5.934,1.656c-1.166-2.589-.5-3.758,2.254-3.789.958-.01,1.956-.3,2.891.181.376.306.317.919.915,1.111C164.636,1602.174,163.025,1602.254,163.09,1602.557Z" transform="translate(-74.606 -116.438)" fill="#eaecec"/>
    <path id="Path_5061" data-name="Path 5061" d="M196.242,1595.9c-1.874-.835-3.757-.449-5.641-.039-.487-.323-1.514.443-1.56-.772,7.318-.183,14.569-1.217,22.045-1.929-.763,1.159-1.965.332-2.619,1.066-2.747.59-5.667.051-8.318,1.273-.62-.058-1.231.089-1.848.09C197.6,1595.57,196.979,1596.149,196.242,1595.9Z" transform="translate(-94.169 -112.117)" fill="#3c3c3b"/>
    <path id="Path_5062" data-name="Path 5062" d="M142.419,1594.553l-.392-.4c1.488-1.035,3.2-.72,4.832-.726.635,0,1.27.278,1.9-.064l2.376-.033c2.016.28,3.965-.585,5.979-.353.421.568,1.044.31,1.584.39a2.9,2.9,0,0,1-.87.36C152.69,1594.019,147.554,1594.283,142.419,1594.553Z" transform="translate(-65.811 -111.981)" fill="#444647"/>
    <path id="Path_5063" data-name="Path 5063" d="M186.37,1607.071c.849-1.488,2.389-.846,3.615-1.174.47-.722.993-.956,1.627-.18-.115,1.374-1.471,1.407-2.252,2.056-.525.435-1.236.6-1.788,1.019-.14.369-.489.316-.777.386-.533-.2-1.311.146-1.509-.787C185.083,1607.434,186.255,1607.708,186.37,1607.071Z" transform="translate(-91.889 -119.398)" fill="#150f0a"/>
    <path id="Path_5064" data-name="Path 5064" d="M183.646,1624.106l.47.3a28.9,28.9,0,0,0,8.02,3.48,2.625,2.625,0,0,1,1.632.993c.106.7-.174,1-.882.855a35.719,35.719,0,0,1-8.551-3.754,3.539,3.539,0,0,1-1.5-1.484.448.448,0,0,0,.159-.316Z" transform="translate(-90.425 -130.78)" fill="#0e0e0f"/>
    <path id="Path_5065" data-name="Path 5065" d="M179.641,1599a4.513,4.513,0,0,0-.805,2.73c-.065.806-.447.881-1,.393-.393-.344-.751-.727-1.12-1.1s-.767-.766-.525-1.361a1.209,1.209,0,0,1,1.3-.674l2.156,0Z" transform="translate(-86.37 -115.629)" fill="#535354"/>
    <path id="Path_5066" data-name="Path 5066" d="M156.546,1599.827c-.787.051-1.574.1-2.361.152-3.223.2-3.223.2-2.785,3.456a.354.354,0,0,1-.483.282c-.789-.773.023-2.056-.9-2.779-.763-.385-1.739,0-2.417-.673l-.537-.468c3.061-.777,6.244.022,9.31-.724.31-.075.7-.052.757.365C157.146,1599.54,156.752,1599.7,156.546,1599.827Z" transform="translate(-68.85 -115.66)" fill="#434745"/>
    <path id="Path_5067" data-name="Path 5067" d="M186.6,1598c.327.649,1.246.1,1.56.772-1.269.591-1.546,2.157-2.757,2.8l-.4-3.186,0-.006C185.422,1597.8,186.046,1598.046,186.6,1598Z" transform="translate(-91.729 -115.026)" fill="#535354"/>
    <path id="Path_5068" data-name="Path 5068" d="M131.186,1593.36c-1.385.806-2.9.187-4.337.394-.8.115-1.691-.314-2.392.4l-1.205-.042c-1.148-.848-2.283.03-3.424.029l-6.93-.008a130.576,130.576,0,0,1,14.168-.838c.854-.331,1.708-.635,2.542.05l.782-.01Z" transform="translate(-48.241 -111.975)" fill="#5d6461"/>
    <path id="Path_5069" data-name="Path 5069" d="M151.143,1590.869l-2.541-.05,1.69-1.99C150.09,1589.711,151.067,1590.1,151.143,1590.869Z" transform="translate(-69.777 -109.502)" fill="#427d5c"/>
    <path id="Path_5070" data-name="Path 5070" d="M276.991,1591.692c-.081-1.644,1.173-.409,1.682-.78l.854,2.065Z" transform="translate(-147.216 -110.698)" fill="#1d1d1f"/>
    <path id="Path_5071" data-name="Path 5071" d="M143.085,1602.127l3,.069c.152,1.164.7,2.372-.384,3.4l-5.16,2.5c-1.616-1.049-.828-2.319-.327-3.561C142.683,1605.238,142.7,1605.223,143.085,1602.127Z" transform="translate(-64.332 -117.523)" fill="#effaf4"/>
    <path id="Path_5072" data-name="Path 5072" d="M135.594,1607.9c.662,1.135-.844,2.472.327,3.56-.155.687-.318,1.368-1.11,1.619q-.087-.876-.173-1.75c-.057-1.828-1.725-2.4-2.724-3.5C133.14,1607.936,134.376,1607.449,135.594,1607.9Z" transform="translate(-59.711 -120.887)" fill="#579877"/>
    <path id="Path_5073" data-name="Path 5073" d="M155.014,1605.7c.646-1.075.271-2.263.384-3.4.852,1.059.341,2.243.314,3.384Z" transform="translate(-73.644 -117.627)" fill="#eaecec"/>
    <path id="Path_5074" data-name="Path 5074" d="M204.183,1623.7a.813.813,0,0,0,.726-.9,1.476,1.476,0,0,1-.469-1.061c.048-1.28-.276-2.123-1.8-2.21A1,1,0,0,1,201.7,1618c.5-.974.676-2.17,1.617-2.85.958-.693,1.945-1.743,3.22-.412.2.209.666.433.855.34,1.331-.656,2.21.053,3.105.875,1.08.991,1.131,2.276,1.111,3.594-.036.285-.192.565-.456.566-1.176,0-2.015.361-2.19,1.684a.684.684,0,0,1-.7.569c-.31-.016-.387-.314-.5-.547-.26-.53-.021-1.552-1.012-1.386-1.049.177-.906,1.121-.864,1.914a4.3,4.3,0,0,1,0,.589c-.472.366.273.936-.216,1.3a.544.544,0,0,1-.25.063Z" transform="translate(-101.722 -124.745)" fill="#147d41"/>
    <path id="Path_5075" data-name="Path 5075" d="M220.308,1639.7a81.175,81.175,0,0,1,19.721,7.274c.338.1.582.357.373.654-.3.421-.735.295-1.122.044-6.426-3.308-13.38-5.138-20.243-7.218C219.056,1639.519,219.57,1639.419,220.308,1639.7Z" transform="translate(-112.262 -140.102)" fill="#0c0d0c"/>
    <path id="Path_5076" data-name="Path 5076" d="M278.206,1662.891c.183.45.93,1.049-.3,1.133l-4.771-3.252c-.015-.812.606-.629,1.073-.69A6.32,6.32,0,0,1,278.206,1662.891Z" transform="translate(-144.895 -152.481)" fill="#131815"/>
    <path id="Path_5077" data-name="Path 5077" d="M215.677,1637.633a1.43,1.43,0,0,0-1.271.754l-2.825-.856c.133-.376-.553-.747-.007-1.124,1.429-.7,2.512.1,3.611.832Z" transform="translate(-107.631 -138.037)" fill="#101915"/>
    <path id="Path_5078" data-name="Path 5078" d="M272.452,1655.51c-.4.114-.9-.108-1.175.375l-1.226-.723c.393-.079,1.138.221.749-.7.68-.739.118-1.68.4-2.484l.418.094A7.641,7.641,0,0,1,272.452,1655.51Z" transform="translate(-143.032 -147.593)" fill="#3d6852"/>
    <path id="Path_5079" data-name="Path 5079" d="M125.833,1610.129a.546.546,0,0,1-.058.363c-1.167.106-2.167.005-1.968-1.585q.015-1.748.03-3.5c.8-.522.087-1.541.971-2.4.469,1.865.128,3.565.273,5.214C125.142,1608.9,124.6,1609.886,125.833,1610.129Z" transform="translate(-54.806 -118.054)" fill="#8a8a8c"/>
    <path id="Path_5080" data-name="Path 5080" d="M130.167,1607.648c.1.082.2.235.3.234,2.307-.019,2.886,1.234,2.424,3.264-1.255.162-2.561-.184-3.776.379.221-1.373-.676-2.914.627-4.122Z" transform="translate(-57.963 -120.706)" fill="#f4f8f6"/>
    <path id="Path_5081" data-name="Path 5081" d="M274.838,1655.344c-1.18-.928-.552-2.292-.831-3.436,1.737.02,3.466-.4,5.208-.088-.437,1.4.05,2.828-.138,4.23-.08.6.355,1.309-.348,1.787Z" transform="translate(-145.418 -147.428)" fill="#ebf5f0"/>
    <path id="Path_5082" data-name="Path 5082" d="M269.6,1642.37a2.414,2.414,0,0,1-1.619-1.136,1.222,1.222,0,0,1,1.693-.348C270.378,1641.345,269.828,1641.88,269.6,1642.37Z" transform="translate(-141.783 -140.775)" fill="#a8d8c1"/>
    <path id="Path_5083" data-name="Path 5083" d="M274.98,1641.7c-.254.236-.2.851-.752.708-.372-.1-.351-.506-.315-.815a.576.576,0,0,1,.668-.542C274.99,1641.079,275.144,1641.292,274.98,1641.7Z" transform="translate(-145.351 -140.999)" fill="#93e9b8"/>
    <path id="Path_5084" data-name="Path 5084" d="M214.823,1630.578l-3.61-.832c-.737-.733-.384-1.623-.258-2.419.19-1.2,1.34-1.038,2.054-.947,1.355.173.386,1.455.779,1.883.071-2.031,1.9-1.79,3.369-2.081l.867-1.087c.477.949.3,1.717-.8,1.913C215.141,1627.384,215.008,1628.977,214.823,1630.578Z" transform="translate(-107.268 -131.376)" fill="#ecf8f4"/>
    <path id="Path_5085" data-name="Path 5085" d="M192.351,1623.326c-.012,1.159.854,1.333,1.6,1.1,1.639-.515,1.669.446,1.655,1.555-.009.715-.032,1.43-.048,2.145a42.2,42.2,0,0,1-7.266-2.54,4.912,4.912,0,0,1-2.23-1.892c.083-.309.14-.717.53-.7C188.514,1623.046,190.466,1622.651,192.351,1623.326Z" transform="translate(-92.372 -130.068)" fill="#eef4f1"/>
    <path id="Path_5086" data-name="Path 5086" d="M191.08,1607.4c1.068-1.264,2.732-1.729,3.875-2.892.566-.285.839-.9,1.382-1.219a1.769,1.769,0,0,1,2.2.05l-4.3,2.823C193.1,1606.347,192.359,1607.564,191.08,1607.4Z" transform="translate(-95.399 -118.006)" fill="#242021"/>
    <path id="Path_5087" data-name="Path 5087" d="M205.64,1600.306a4.406,4.406,0,0,0-2.49.471c-.657-.5-.071-.724.225-1.011a14.773,14.773,0,0,0,2.944-1.784c.736.035,1.551-.385,2.16.378A9.434,9.434,0,0,1,205.64,1600.306Z" transform="translate(-102.498 -114.972)" fill="#25221e"/>
    <path id="Path_5088" data-name="Path 5088" d="M199.885,1602.377c-.065.29-.425.524-.165.875-.338.276-.254,1.213-1.1.7-.487-.717-.975-.17-1.462,0,.167-1.668,1.779-1.329,2.7-1.946.142.077.193.157.152.243S199.93,1602.377,199.885,1602.377Z" transform="translate(-99.067 -117.446)" fill="#49471f"/>
    <path id="Path_5089" data-name="Path 5089" d="M203.987,1600.031a1.688,1.688,0,0,1-.021-.377l1.277-.767,1.748-.777A4.54,4.54,0,0,1,203.987,1600.031Z" transform="translate(-103.169 -115.099)" fill="#908e65"/>
  </g>
</svg>
