<svg xmlns="http://www.w3.org/2000/svg" width="34.842" height="34.928" viewBox="0 0 34.842 34.928">
  <g id="logoright" transform="translate(-32.921 -1407.288)">
    <path id="Path_4938" data-name="Path 4938" d="M35.438,1434.031a18.125,18.125,0,0,1-2.257-5.659,8.975,8.975,0,0,1-.256-2.221,31.117,31.117,0,0,1,.162-4.521,18.166,18.166,0,0,1,1.68-4.9c.16-.314.331-.622.5-.933a3.156,3.156,0,0,1,.545-.9,29.729,29.729,0,0,1,2.323-2.7.877.877,0,0,1,.351-.355c.62-.488,1.2-1.042,1.855-1.464a18.827,18.827,0,0,1,3.647-1.888,17.487,17.487,0,0,1,23.516,13.5,16.857,16.857,0,0,1-1.914,11.184,4.432,4.432,0,0,0-.51.946,1.571,1.571,0,0,1-.38.52,17.979,17.979,0,0,1-4.788,4.686,17.528,17.528,0,0,1-18.947.217,17.82,17.82,0,0,1-2.84-2.2,18.9,18.9,0,0,1-2.152-2.509A2.041,2.041,0,0,1,35.438,1434.031Z" transform="translate(0)" fill="#10954a"/>
    <path id="Path_4939" data-name="Path 4939" d="M59.517,1491.632a2.79,2.79,0,0,1-.545.9c-.045-.3.219-.518.219-.82C59.191,1491.581,59.381,1491.566,59.517,1491.632Z" transform="translate(-23.707 -76.735)" fill="#d7f8e7"/>
    <path id="Path_4940" data-name="Path 4940" d="M60.86,1705.092a3.553,3.553,0,0,1,.533.8C61.06,1705.729,60.8,1705.519,60.86,1705.092Z" transform="translate(-25.422 -271.061)" fill="#d4f7e5"/>
    <path id="Path_4941" data-name="Path 4941" d="M386.792,1706.62a1.074,1.074,0,0,1,.38-.519A.443.443,0,0,1,386.792,1706.62Z" transform="translate(-322.094 -271.98)" fill="#cdf3dc"/>
    <path id="Path_4942" data-name="Path 4942" d="M91.251,1457.911c-.049.185-.2.266-.351.355C90.865,1458,90.98,1457.877,91.251,1457.911Z" transform="translate(-52.768 -46.072)" fill="#d7f7e5"/>
    <path id="Path_4943" data-name="Path 4943" d="M49.682,1448.375a14.306,14.306,0,0,1-3.763-3.222.929.929,0,0,0-.465-.543,16.518,16.518,0,0,1,10.567-26.6,16.01,16.01,0,0,1,11.828,2.771.732.732,0,0,0,.507.381,14.473,14.473,0,0,1,3.769,3.907,16.465,16.465,0,0,1-.715,19.52,1,1,0,0,0-.52.622,15.621,15.621,0,0,1-6.172,4.42c-.233.043-.473.189-.685-.047-.1-.259.188-.335.273-.592-.245.225-.526.318-.553.644a1.225,1.225,0,0,1-.4.5,15.958,15.958,0,0,1-8.353.38.345.345,0,0,1-.176-.4.483.483,0,0,1,.077-.176c.061-.081.1-.176.167-.255.2-.156.331-.3-.058-.362-.112-.017-.193-.114-.309-.119a.4.4,0,0,0-.3.127c-.116.284.122.471.19.7a.428.428,0,0,1,.03.131c-.028.233-.163.255-.348.178h0c-.172-.207-.433-.1-.64-.179a13.142,13.142,0,0,1-3.4-1.454A.963.963,0,0,0,49.682,1448.375Z" transform="translate(-8.152 -9.583)" fill="#fefefe"/>
    <path id="Path_4944" data-name="Path 4944" d="M281.735,1769.882c.139.33.438.1.646.183a6.086,6.086,0,0,1-1.366.507.912.912,0,0,1,.358-.511C281.462,1769.937,281.553,1769.818,281.735,1769.882Z" transform="translate(-225.816 -330.017)" fill="#e0f8ec"/>
    <path id="Path_4945" data-name="Path 4945" d="M179.93,1776.791c.19,0,.3-.073.279-.279.123-.039.247-.084.361.023a.65.65,0,0,0,.084.428A1.675,1.675,0,0,1,179.93,1776.791Z" transform="translate(-133.808 -336.028)" fill="#e1faee"/>
    <path id="Path_4946" data-name="Path 4946" d="M364.944,1716.582c-.017-.367.091-.628.52-.622A1.944,1.944,0,0,1,364.944,1716.582Z" transform="translate(-302.206 -280.954)" fill="#d6f6e9"/>
    <path id="Path_4947" data-name="Path 4947" d="M81.7,1716.151c.409-.036.437.254.465.543A1.541,1.541,0,0,1,81.7,1716.151Z" transform="translate(-44.401 -281.124)" fill="#d3f6e1"/>
    <path id="Path_4948" data-name="Path 4948" d="M331.6,1451.219c-.34.1-.5-.041-.507-.381A1.145,1.145,0,0,1,331.6,1451.219Z" transform="translate(-271.397 -39.639)" fill="#d6f5e5"/>
    <path id="Path_4949" data-name="Path 4949" d="M128.793,1758.023c.275-.033.5.017.559.339A1.364,1.364,0,0,1,128.793,1758.023Z" transform="translate(-87.263 -319.231)" fill="#d1f6e0"/>
    <path id="Path_4950" data-name="Path 4950" d="M172.847,1777.52c.217.047.529-.246.64.179A1.356,1.356,0,0,1,172.847,1777.52Z" transform="translate(-127.361 -336.935)" fill="#e1faee"/>
    <path id="Path_4951" data-name="Path 4951" d="M122.587,1484.96a11.578,11.578,0,1,1-13.313-11.413,11.353,11.353,0,0,1,10.009,3.337A11.15,11.15,0,0,1,122.587,1484.96Z" transform="translate(-60.538 -60.198)" fill="#198e4f"/>
    <path id="Path_4952" data-name="Path 4952" d="M251.953,1443.433a.441.441,0,0,1-.568.348c-.809-.125-.812-.109-.614.657a1.58,1.58,0,0,0,1.6,1.273c-.1-.316-.362-.457-.58-.642-.079-.067-.325-.047-.178-.264a.312.312,0,0,1,.428-.128,1.828,1.828,0,0,1,.635.555,5.433,5.433,0,0,0,.342.471c.2.219.409.417,0,.627-.094.047-.07.122-.013.181.1.106.2.229.378.171a3.321,3.321,0,0,1,.385-.118c.321-.063.606-.025.72.343a.891.891,0,0,1-.473.974.512.512,0,0,1-.7-.3.72.72,0,0,0-.441-.44.62.62,0,0,1-.424-.71c.052-.266-.083-.267-.254-.275a1.907,1.907,0,0,1-1.361-.486c-.333-.382-.739-.406-1.125-.585-.481-.224-1.057-.2-1.476-.61-.14-.137-.513.022-.7-.16a1.154,1.154,0,0,0-.81-.339.421.421,0,0,1-.394-.373.646.646,0,0,1,.2-.6c.269-.284.72-.26.96-.608.06-.086.3-.036.272.2s-.083.47-.11.707c-.021.186-.092.4.133.521s.392.009.55-.153a.707.707,0,0,1,.538-.282.557.557,0,0,1,.576.563c.017.162-.027.358.116.463.2.147.461.357.685.238.239-.127.048-.4-.021-.594-.177-.5.061-.85.581-.8A4.392,4.392,0,0,1,251.953,1443.433Z" transform="translate(-194.228 -31.915)" fill="#16914d"/>
    <path id="Path_4953" data-name="Path 4953" d="M318.1,1681.515c-.16-.052-.233.078-.342.113a.673.673,0,0,1-.842-.2.693.693,0,0,1,.014-.877.654.654,0,0,1,.859-.084c.123.06.224.284.413.082a1.469,1.469,0,0,0,.453-.7c.019-.1-.1-.177-.218-.172-.149.006-.3.02-.447.029-.386.024-.643-.226-.567-.591a4.493,4.493,0,0,1,.437-1.215c.347.271.347.271.222.605l-.111.294c-.183.484-.183.483.312.457.06,0,.12,0,.179,0,1.015-.006,1.532-.54,1.545-1.619a1.267,1.267,0,0,0-.587.59c-.054.094-.014.365-.262.222a.306.306,0,0,1-.158-.447,1.85,1.85,0,0,1,.461-.6c.221-.177.427-.372.646-.552.066-.054.088-.233.231-.119.1.079.268.133.227.3a6.512,6.512,0,0,1-.331,1.837c-.22.393-.4.815-.942.848-.083,0-.145.034-.127.135.075.432-.212.7-.468.961a.619.619,0,0,0-.186.668.994.994,0,0,1-.593,1.21c-.136.052-.284.121-.4-.054-.135-.207.045-.245.163-.325A.771.771,0,0,0,318.1,1681.515Z" transform="translate(-258.355 -245.224)" fill="#17904d"/>
    <path id="Path_4954" data-name="Path 4954" d="M130.055,1709.323c.141.026.336.013.249.249-.045.122-.1.216.046.3.115.071.2.006.286-.048.287-.185.412-.13.34.224-.016.08-.016.146.076.178a.269.269,0,0,0,.284-.076c.095-.084.168-.222.337-.138.194.1.053.225.043.344a.361.361,0,0,0,.306.383,5.724,5.724,0,0,0,.611.118c.309.062.635-.158.917.044a6.355,6.355,0,0,0-1.066-.521c.121-.446.421-.418.768-.3a8.61,8.61,0,0,1,1.2.774c.192.1.013.391-.173.415a4.1,4.1,0,0,1-2.5-.045c-.039-.02-.113-.013-.124-.039-.216-.5-.794-.475-1.173-.691a2.709,2.709,0,0,0-1.073-.542c-.4-.04-.5-.615-.774-.757-.329-.169-.685-.249-.873-.6a.606.606,0,0,1,.083-.677c.351-.445.728-.87,1.095-1.3.08-.094.153-.193.287-.065.109.1.17.192.044.335-.286.325-.558.662-.837.993-.143.169-.257.347-.089.558a.434.434,0,0,0,.589.141c.256-.122.426-.09.289.263a.365.365,0,0,0,.2.481A.521.521,0,0,0,130.055,1709.323Z" transform="translate(-86.257 -272.335)" fill="#18904e"/>
    <path id="Path_4955" data-name="Path 4955" d="M126.982,1453.39c-.164-.112-.187-.318-.31-.458s-.055-.238.067-.334c.163-.13.235-.009.317.1.255.344.505.692.771,1.028.1.129.192.326.429.2.2-.1.365-.216.326-.475-.019-.127-.09-.259.1-.33s.191.085.254.172c.17.232.282.18.342-.073a2.109,2.109,0,0,1,.358-.766.86.86,0,0,1,.892-.388.666.666,0,0,1,.548.532.788.788,0,0,1-.365.813,2.158,2.158,0,0,1-1.6.57c-.161-.021-.2.031-.255.158a.59.59,0,0,1-.807.349c-.272-.111-.293.015-.337.2a1.063,1.063,0,0,1-.432.7c-.146.1-.273.125-.4.007s.006-.234.073-.334c.332-.491.33-.5-.245-.706-.2-.069-.4-.123-.6-.185s-.38-.169-.3-.411c.1-.3.254.061.388-.008.04-.021.108.014.163.023.143.044.291-.022.436.031a.931.931,0,0,0,.443.128C127.144,1453.755,127.071,1453.569,126.982,1453.39Z" transform="translate(-84.533 -40.746)" fill="#16914e"/>
    <path id="Path_4956" data-name="Path 4956" d="M203.675,1743.137a.629.629,0,0,1-.463-.494.706.706,0,0,1,.511-.866.609.609,0,0,1,.723.567c.049.28.125.384.421.343s.36-.218.345-.468c-.025-.418-.048-.835-.079-1.252-.013-.173.017-.283.226-.3s.193.139.2.266c.035.417.065.835.1,1.252.014.184.041.373.252.428a.835.835,0,0,0,.648-.082c.188-.122-.039-.281-.066-.427s-.341-.249-.037-.425.341.082.409.238c.142.323.378.7.092,1a1.076,1.076,0,0,1-1.134.23c-.52-.2-.932.247-1.417.131-.036-.009-.111.158-.173.24a1.059,1.059,0,0,1-1.336.418c-.134-.065-.274-.126-.23-.329.056-.254.223-.125.352-.109a.793.793,0,0,0,.566-.025C203.631,1743.371,203.989,1743.341,203.675,1743.137Z" transform="translate(-154.496 -303.445)" fill="#18914e"/>
    <path id="Path_4957" data-name="Path 4957" d="M197.446,1446.522c-.705-.077-.913-.251-.929-.724a.625.625,0,0,1,.454-.686c.355-.114.553.122.738.369.1.127.05.377.329.347.249-.027.287-.228.375-.395.235-.444.53-.583.847-.4a.919.919,0,0,1,.3,1.117c-.172.282-.435.268-.712.182a.81.81,0,0,0-1.059.482,1.074,1.074,0,0,1-1.191.662c-.148-.032-.3-.062-.294-.268.008-.24.177-.182.322-.182A.824.824,0,0,0,197.446,1446.522Z" transform="translate(-148.708 -34.284)" fill="#1d9251"/>
    <path id="Path_4958" data-name="Path 4958" d="M268.679,1730.357l.108-.1c.11-.317-.182-.667.082-.971a.559.559,0,0,1,.709-.217.914.914,0,0,1,.577.684.384.384,0,0,1-.291.488c-.4.068-.608.369-.86.617a.7.7,0,0,1-.721.239c-.195-.058-.267.081-.371.178a2.348,2.348,0,0,1-1.294.659.933.933,0,0,1-1.084-.826c-.018-.118-.066-.242.105-.289.137-.038.181.05.223.155.184.452.535.456.929.343a4.418,4.418,0,0,0,.8-.4c.28-.146.1-.431.23-.617.128-.124.23-.057.34.035A.368.368,0,0,0,268.679,1730.357Z" transform="translate(-211.707 -292.837)" fill="#189050"/>
    <path id="Path_4959" data-name="Path 4959" d="M57.541,1593.624a1.7,1.7,0,0,0,.564,1.487,1.086,1.086,0,0,0-1.156.963c-.277-.537-.567-.979-1.294-.8a1.227,1.227,0,0,0,.357-1.542A1.106,1.106,0,0,0,57.541,1593.624Z" transform="translate(-20.693 -169.603)" fill="#13954b"/>
    <path id="Path_4960" data-name="Path 4960" d="M380.708,1595.207c-.018.038-.026.1-.056.11-.739.359-.74.358-1.1.913-.279-.245-.3-.782-.818-.745-.093-.109-.31-.156-.184-.372.411-.326.152-.743.094-1.231.55.394,1.019.438,1.44-.024.1-.018.136.053.131.129A1.7,1.7,0,0,0,380.708,1595.207Z" transform="translate(-314.556 -169.814)" fill="#11964c"/>
    <path id="Path_4961" data-name="Path 4961" d="M106.835,1484.577a1.1,1.1,0,0,1-.873-.579.158.158,0,0,1,.043-.232c.09-.074.151-.027.233.027.534.347.674.33,1.139-.129a4.756,4.756,0,0,0,.338-.357c.41-.5.407-.5-.154-.8-.1-.053-.246-.075-.158-.25.076-.152.168-.237.352-.15a2.343,2.343,0,0,1,.7.478.283.283,0,0,1,.095.324,3,3,0,0,1-1.511,1.63A1.144,1.144,0,0,1,106.835,1484.577Z" transform="translate(-66.452 -68.062)" fill="#1c9150"/>
    <path id="Path_4962" data-name="Path 4962" d="M105.144,1701.364a1.245,1.245,0,0,1-1.076-.937.963.963,0,0,1,.649-1.012c.134-.055.254-.1.343.064s-.065.2-.149.267c-.389.333-.406.569-.07.941.3.337.57.319.829-.062.075-.111.128-.236.2-.351.056-.093.079-.25.254-.154.125.068.218.144.184.315A1.484,1.484,0,0,1,105.144,1701.364Z" transform="translate(-64.748 -265.848)" fill="#208e52"/>
    <path id="Path_4963" data-name="Path 4963" d="M185.083,1439.158c0,.125-.086.159-.2.179s-.2.023-.243-.116c-.2-.713-.409-1.425-.611-2.138-.036-.127.042-.2.151-.229s.222-.07.264.071C184.662,1437.664,184.869,1438.406,185.083,1439.158Z" transform="translate(-137.533 -26.885)" fill="#209356"/>
    <path id="Path_4964" data-name="Path 4964" d="M132.76,1466.935a1.121,1.121,0,0,1,.43.79,8.667,8.667,0,0,0-1.048-.392C132.334,1467.178,132.753,1467.377,132.76,1466.935Z" transform="translate(-90.311 -54.291)" fill="#dcf6e7"/>
    <path id="Path_4965" data-name="Path 4965" d="M285.342,1763.829l-.362.179c-.04-.217.485-.856.661-.789.131.049.166.165.052.279S285.46,1763.719,285.342,1763.829Z" transform="translate(-229.423 -323.964)" fill="#448d69"/>
    <path id="Path_4966" data-name="Path 4966" d="M181.1,1749.829a1.8,1.8,0,0,1,1.133.538,1.864,1.864,0,0,1-.984-.061c.126-.033.26-.05.337-.182C181.5,1749.9,181.1,1750.186,181.1,1749.829Z" transform="translate(-134.871 -311.781)" fill="#dffce8"/>
    <path id="Path_4967" data-name="Path 4967" d="M396.646,1594.989a.9.9,0,0,1-.536-1.078.21.21,0,0,0-.09-.27c.31-.113.227.2.238.28.039.3.018.589.358.745C396.759,1594.73,396.65,1594.878,396.646,1594.989Z" transform="translate(-330.494 -169.596)" fill="#e0f7e8"/>
    <path id="Path_4968" data-name="Path 4968" d="M107.556,1488.4c-.01.182-.086.28-.243.284a.254.254,0,0,1-.288-.263.237.237,0,0,1,.237-.264A.29.29,0,0,1,107.556,1488.4Z" transform="translate(-67.45 -73.608)" fill="#5ba581"/>
    <path id="Path_4969" data-name="Path 4969" d="M245.759,1773.439a.226.226,0,0,1-.243.254.247.247,0,0,1-.278-.269.242.242,0,0,1,.25-.254C245.663,1773.162,245.751,1773.268,245.759,1773.439Z" transform="translate(-193.252 -333.026)" fill="#4b946d"/>
    <path id="Path_4970" data-name="Path 4970" d="M276.95,1736.4a.257.257,0,0,1,.229-.355c.14-.023.219.074.267.192a.225.225,0,0,1-.1.273c-.186.147-.3.01-.406-.117Z" transform="translate(-222.103 -299.234)" fill="#579e78"/>
    <path id="Path_4971" data-name="Path 4971" d="M271.567,1738.626a1.235,1.235,0,0,1-.078.253.215.215,0,0,1-.3.094.246.246,0,0,1-.133-.335.21.21,0,0,1,.292-.124,2.06,2.06,0,0,1,.229.12Z" transform="translate(-216.727 -301.464)" fill="#3d8e62"/>
    <path id="Path_4972" data-name="Path 4972" d="M125.257,1696.285c-.046.132-.115.252-.275.243a.228.228,0,0,1-.23-.273.243.243,0,0,1,.265-.245C125.186,1696.015,125.24,1696.135,125.257,1696.285Z" transform="translate(-83.584 -262.795)" fill="#409067"/>
    <path id="Path_4973" data-name="Path 4973" d="M186.515,1767.281c.183-.1.363-.09.418.124.062.237-.089.344-.324.33C186.37,1767.627,186.273,1767.489,186.515,1767.281Z" transform="translate(-139.674 -327.609)" fill="#49996d"/>
    <path id="Path_4974" data-name="Path 4974" d="M112.335,1484.034c-.019.133-.082.228-.229.223a.235.235,0,0,1-.25-.257.2.2,0,0,1,.226-.222A.24.24,0,0,1,112.335,1484.034Z" transform="translate(-71.848 -69.621)" fill="#378d5e"/>
    <path id="Path_4975" data-name="Path 4975" d="M149.608,1721.808a1.145,1.145,0,0,1,.261-.007.207.207,0,0,1,.187.253.24.24,0,0,1-.24.218.221.221,0,0,1-.237-.214.931.931,0,0,1,.036-.258Z" transform="translate(-106.18 -286.264)" fill="#2e8b60"/>
    <path id="Path_4976" data-name="Path 4976" d="M144.906,1718.121c-.136.082-.272.212-.43.052a.233.233,0,0,1-.044-.284.21.21,0,0,1,.252-.128c.2.045.248.186.215.37Z" transform="translate(-101.471 -282.586)" fill="#408f65"/>
    <path id="Path_4977" data-name="Path 4977" d="M182.6,1771.774a.4.4,0,0,1-.361-.024l0,0a.345.345,0,0,1-.045-.375.271.271,0,0,1,.384-.1.247.247,0,0,1,.1.373Z" transform="translate(-135.837 -331.267)" fill="#3c966a"/>
    <path id="Path_4978" data-name="Path 4978" d="M180.55,1765.992c.063-.192.2-.222.378-.18.206.367.166.439-.27.5C180.537,1766.234,180.469,1766.138,180.55,1765.992Z" transform="translate(-134.34 -326.314)" fill="#378a5e"/>
    <path id="Path_4979" data-name="Path 4979" d="M181.822,1766.395c.365.026.449-.123.271-.435.137-.019.165.121.253.173a.331.331,0,0,0,.094.455c-.008.1.019.2-.092.263-.014-.318-.155-.417-.445-.259C181.819,1766.55,181.755,1766.5,181.822,1766.395Z" transform="translate(-135.505 -326.462)" fill="#b5f3ce"/>
    <path id="Path_4980" data-name="Path 4980" d="M179.824,1768.24l.081.2q0,.178,0,.355c-.339-.368-.4-.607-.193-.807Z" transform="translate(-133.507 -328.307)" fill="#e1faee"/>
    <path id="Path_4981" data-name="Path 4981" d="M292.019,1742.079c-.144.288-.351.283-.546.08-.1-.1-.167-.188-.316-.142.1-.192.239-.117.366-.053A.85.85,0,0,0,292.019,1742.079Z" transform="translate(-235.047 -304.56)" fill="#d6f2e1"/>
    <path id="Path_4982" data-name="Path 4982" d="M300.985,1732c-.164.312.159.666-.082.971C300.853,1732.638,300.655,1732.3,300.985,1732Z" transform="translate(-243.823 -295.551)" fill="#d6f2e1"/>
    <path id="Path_4983" data-name="Path 4983" d="M376.574,1607.859l.184.372c-.14,0-.336.069-.4-.051C376.278,1608.03,376.495,1607.967,376.574,1607.859Z" transform="translate(-312.582 -182.56)" fill="#328f5f"/>
    <path id="Path_4984" data-name="Path 4984" d="M147.579,1738.03c-.213.249-.425.259-.638,0Z" transform="translate(-103.781 -301.042)" fill="#c4efd6"/>
    <path id="Path_4985" data-name="Path 4985" d="M213.046,1768.133c.1,0,.254-.018.233.108a.3.3,0,0,1-.322.237C212.926,1768.347,213.168,1768.286,213.046,1768.133Z" transform="translate(-163.867 -328.44)" fill="#bcecd0"/>
    <path id="Path_4986" data-name="Path 4986" d="M131.841,1480.112a10.743,10.743,0,0,1,2.864,3.258.47.47,0,0,1-.208.372,12.382,12.382,0,0,1-1.109.876c-.136.1-.282.171-.446.05-.277-.261-.557-.459-.945-.175-.192.14-.339-.02-.465-.146a12.188,12.188,0,0,1-1.4-1.513,3.006,3.006,0,0,0-.9-.866c-.383-.23-.523-.2-.783.168-.41.59-.753,1.222-1.155,1.817-.181.268-.327.622-.752.293-.1-.078-.2.018-.271.1-.357.4-.832.692-1.011,1.238-.078.237-.274.306-.456.139a1.144,1.144,0,0,0-1.754,0c-.209.19-.389.071-.458-.189-.149-.564-.654-.836-1.007-1.231a.239.239,0,0,0-.329-.028c-.306.2-.461.009-.61-.221-.391-.6-.748-1.226-1.153-1.819-.345-.5-.5-.53-.971-.171a3.5,3.5,0,0,0-.763.753,10.591,10.591,0,0,1-1.312,1.471.492.492,0,0,1-.676.12.512.512,0,0,0-.656.1c-.087.078-.151.19-.288.194a1.838,1.838,0,0,1,.378-.995,11.128,11.128,0,0,1,15.991-4.054A.876.876,0,0,0,131.841,1480.112Z" transform="translate(-74.552 -64.154)" fill="#fefefe"/>
    <path id="Path_4987" data-name="Path 4987" d="M157.308,1615.841a6.969,6.969,0,0,1-2.719,1.6,10.574,10.574,0,0,1-3.853.73,1.82,1.82,0,0,1-.305-.05c-.007-.317.3-.447.414-.689a1.538,1.538,0,0,0,.34-.549c.031-.144.16-.213.244-.315a1.248,1.248,0,0,0,.124-.26c.012-.038.027-.075.043-.112a1.964,1.964,0,0,0,.2-1.061c-.012-.123-.021-.238-.181-.249-.331-.062-.51.067-.531.41-.025.415-.353.758-.286,1.195.008.168-.106.227-.239.269-.474.231-.714.736-1.164.995-.121.069-.2.229-.38.161-.055.022-.115.073-.163.063a10.25,10.25,0,0,1-4.423-1.688c-.022-.017-.031-.05-.046-.076a1.686,1.686,0,0,1,.391-.691,3.643,3.643,0,0,0,.52-2.777,2.323,2.323,0,0,0-.66-1.2c-.415-.428-.87-.821-1.252-1.277-.346-.412-.768-.84-.434-1.47a4.311,4.311,0,0,1,1.513-.944c.332-.12.672-.214,1.013-.3a.859.859,0,0,1,.511.032c.287.129.04.411.168.586.089.28-.037.6.153.859a2.432,2.432,0,0,0,1.095.822,8.845,8.845,0,0,0,1.5.586c1.32.476,2.708.742,4,1.3a10.632,10.632,0,0,1,3.085,1.877,5.942,5.942,0,0,1,1.295,1.759C157.356,1615.526,157.427,1615.68,157.308,1615.841Z" transform="translate(-100.036 -182.261)"/>
    <path id="Path_4988" data-name="Path 4988" d="M108.446,1524.222c.434-.565.437-.57,1.136-.273.145.062.188-.038.258-.1a8.892,8.892,0,0,0,1.452-1.578,3.342,3.342,0,0,1,.939-.885c.439-.294.6-.262.9.193.416.637.826,1.278,1.216,1.931.165.276.3.426.567.116.072-.084.161-.143.258-.024.434.53,1.151.853,1.2,1.728.289-.19.546-.332.77-.513.279-.226.535-.3.81-.01a.385.385,0,0,0,.073.052c.2.13.4.363.6.365.284,0,.144-.386.292-.544a12.8,12.8,0,0,1,1.07-1.082c.226-.19.294.232.594.2l1.238-1.949a3.393,3.393,0,0,1,.241-.377c.205-.244.409-.4.749-.146a4.014,4.014,0,0,1,1.01.936,11.814,11.814,0,0,0,1.48,1.616c.066.066.112.149.255.064.535-.319.7-.279,1.051.195a.2.2,0,0,1-.071.307,5.6,5.6,0,0,1-1.988.938c-.184-.055-.263-.235-.406-.34-.094-.068-.189-.183-.313-.083-.239.192-.348,0-.465-.148a1.212,1.212,0,0,1-.309-.637,5.358,5.358,0,0,0-.594-1.526c-.128-.33-.295-.352-.525-.089a5.009,5.009,0,0,0-.781,1.348c-.084.2.047.31.2.393a1.419,1.419,0,0,1,.54.521.861.861,0,0,0,.46.332.9.9,0,0,1,.63.786c-.085.211-.246.237-.441.184-.618-.28-1.109-.775-1.817-1.089.058.319.252.365.431.445.361.161.748.305.812.781a.493.493,0,0,1-.674.147,4.127,4.127,0,0,0-.377-.238,1.157,1.157,0,0,1-.765-.753.445.445,0,0,0-.354-.311.435.435,0,0,0-.518.256c-.091.221.094.344.258.4a.936.936,0,0,1,.668.813c-.016.192-.131.216-.287.17a2.7,2.7,0,0,1-.977-.6,1.474,1.474,0,0,0-1.158-.447h-.4a1.574,1.574,0,0,0-1.254.483,4.591,4.591,0,0,1-.969.643c-.1.061-.228.112-.326-.006-.082-.1-.013-.2.034-.291a1.435,1.435,0,0,1,.7-.777c.2-.083.388-.248.192-.486a.422.422,0,0,0-.637-.062.77.77,0,0,0-.208.341.769.769,0,0,1-.39.474,2.569,2.569,0,0,0-1.015.855,1.514,1.514,0,0,1-.688.482.474.474,0,0,1-.128.007c-.208-.12-.479-.138-.617-.374,0-.23.162-.3.341-.352a.955.955,0,0,0,.538-.3,2.327,2.327,0,0,1,1.213-.946c.1-.027.229-.112.175-.219-.081-.164-.205-.031-.294.024-.521.323-1.014.688-1.515,1.039a1.978,1.978,0,0,1-.258.177c-.131.064-.283.169-.409.035-.11-.117-.014-.259.058-.369.266-.408.474-.862,1.025-1,.271-.067.343-.4.541-.58.17-.157.5-.192.5-.462.006-.232-.187-.432-.294-.644a2.765,2.765,0,0,0-.5-.841c-.21-.2-.424-.216-.522.08-.181.547-.624.984-.638,1.6a1.03,1.03,0,0,1-.38.692c-.062.06-.142.165-.223.107-.382-.278-.5.091-.663.278a6.009,6.009,0,0,0-.438.728,1.288,1.288,0,0,1-.271.354c-.151.116-.294.317-.494.259s-.109-.308-.164-.479a5.271,5.271,0,0,1-1.04.552c-.146.061-.3.151-.467.045l-.086-.08a2.547,2.547,0,0,1,.883-1.236,1.5,1.5,0,0,0,.506-.6c-.537.022-.816.459-1.217.661A1.848,1.848,0,0,1,108.446,1524.222Z" transform="translate(-68.167 -103.677)" fill="#020202"/>
    <path id="Path_4989" data-name="Path 4989" d="M111.428,1627.79a6.772,6.772,0,0,1-1.864-1.641,10.942,10.942,0,0,1-2.508-5.008,2.327,2.327,0,0,1-.024-.354c.185-.177.42-.121.639-.136a9.027,9.027,0,0,0,1.386-.038,1.554,1.554,0,0,1,.773.011.177.177,0,0,1,.111.177,1.678,1.678,0,0,0,.644,1.364,7.915,7.915,0,0,1,1.8,2.26,3,3,0,0,1-.761,3.274A.376.376,0,0,1,111.428,1627.79Z" transform="translate(-67.457 -194.129)" fill="#fefefe"/>
    <path id="Path_4990" data-name="Path 4990" d="M289.23,1629.134a11,11,0,0,1-2.865,4.488c-.106.1-.189.237-.349.268a.31.31,0,0,1-.17-.136,7.955,7.955,0,0,0-1.74-1.933,2.021,2.021,0,0,1-.077-1.143c.008-.088.089-.168.064-.258-.11-.395.117-.393.393-.348a.623.623,0,0,0,.353-.024.744.744,0,0,0-.021-.94,1.285,1.285,0,0,0-.935-.6c-.307-.015-.292-.263-.179-.493a3.567,3.567,0,0,1,1.407.086c1.181.129,2.36.271,3.532.473C289.169,1628.664,289.253,1628.742,289.23,1629.134Z" transform="translate(-228.196 -200.859)" fill="#fefefe"/>
    <path id="Path_4991" data-name="Path 4991" d="M265.933,1607.314c.01-.225-.071-.336-.32-.38-1.225-.217-2.46-.361-3.693-.518-.381-.049-.762-.1-1.143-.145-.143-.017-.293-.08-.417.055a.158.158,0,0,1-.178.026.208.208,0,0,1-.032-.03c-.5-.683-.776-.711-1.413-.139a.357.357,0,0,1-.137.015c-.191-.084-.509.1-.566-.265.346-.344.2-.779.217-1.183.005-.163-.061-.324-.043-.486.015-.131-.019-.337.238-.254a.736.736,0,0,0,.576.2c1.151-.027,2.3-.028,3.452-.044,1.221-.018,2.45.03,3.675.059a.524.524,0,0,1,.329.126A10.4,10.4,0,0,1,265.933,1607.314Z" transform="translate(-204.898 -179.039)" fill="#bcb8b7"/>
    <path id="Path_4992" data-name="Path 4992" d="M153.742,1561.09c-.192.417.059.841-.021,1.261a1.213,1.213,0,0,0,0,.356c.029.263-.12.341-.342.353a.358.358,0,0,1-.462.024c-.19-.284-.092-.606-.119-.912a3.032,3.032,0,0,0-.048-.839c-.225-.535-.8-.661-1.185-1a.115.115,0,0,1,.045-.073.123.123,0,0,1,.126-.014,42.409,42.409,0,0,1-4.506.42c-.133.019-.256-.061-.389-.039a.718.718,0,0,1-.288.11c-.123.022-.31-.034-.334.14-.021.155.1.264.274.313.133-.17.064-.461.322-.55.293.182.107.477.169.713-.191.206.164.144.134.271a.317.317,0,0,0,.092.467,2.216,2.216,0,0,1-.4.823.207.207,0,0,1-.188-.022c-.2-.328-.03-.7-.128-1.045-.1.022-.124.137-.223.145-.116-.011-.232-.035-.089-.17a.183.183,0,0,0,.019-.3c-.148-.1-.323-.148-.469-.25.018-.191-.218-.244-.234-.418a9.635,9.635,0,0,0-1.662.015,1.082,1.082,0,0,1-.437,0c-.158-.126-.47-.159-.293-.486a8.573,8.573,0,0,1,1.454-.152c.712.006,1.417-.1,2.126-.135,1.364-.117,2.732-.208,4.086-.406a34.591,34.591,0,0,0,7.445-1.7c.865-.331,1.724-.671,2.561-1.066a.511.511,0,0,1,.387-.066c-.02.348.293.624.21.985.01.3-.3.274-.429.432-.256.19-.6,0-.857.208a16.717,16.717,0,0,1-3.038.905,32.806,32.806,0,0,1-3.811.641,2.118,2.118,0,0,1,.838,0c.341.138.353.368.147.623C154.095,1560.831,153.974,1561.028,153.742,1561.09Z" transform="translate(-100.246 -136.131)" fill="#626365"/>
    <path id="Path_4993" data-name="Path 4993" d="M105.448,1536.843a3.229,3.229,0,0,0,1.625-.9c.07.255-.048.492.049.715.484-.157.663-.577.867-.968a1.785,1.785,0,0,1,.93-.946l.038.359a.882.882,0,0,0,.119-.083,2.478,2.478,0,0,0,.488-1.113,5.531,5.531,0,0,1,.762-1.569c.094-.132.178-.045.259.02a1.54,1.54,0,0,1,.484.518c.129.269.276.529.417.792.286.536.29.541-.225.872a.912.912,0,0,0-.306.316.759.759,0,0,1-.64.483.437.437,0,0,0-.346.252c-.185.305-.386.6-.608.943a.983.983,0,0,0,.574-.235c.574-.4,1.15-.8,1.734-1.188.1-.065.223-.26.363-.041a.28.28,0,0,1-.123.447,2.679,2.679,0,0,0-1.48,1.153.355.355,0,0,1-.326.112.415.415,0,0,0-.44.3.688.688,0,0,1-.228.375c-.164.157-.252.4-.506.458-.858-.011-1.711.108-2.568.114a1.494,1.494,0,0,0-.527.056c-.245.025-.5.092-.714-.091.009-.247.021-.494.025-.741A.393.393,0,0,1,105.448,1536.843Z" transform="translate(-65.716 -113.758)" fill="#fdfdfd"/>
    <path id="Path_4994" data-name="Path 4994" d="M261.947,1584.309a1.9,1.9,0,0,1,.327-.413c.267-.192.231-.369.04-.575a1,1,0,0,1,.94-.124,2.138,2.138,0,0,1,.452.23c-.12-.129-.171-.254.021-.37,1.451-.279,2.923-.417,4.374-.686a.811.811,0,0,1,.355.019,10.964,10.964,0,0,1,1.558.765,6.514,6.514,0,0,1,.016,1.505c-1.313-.018-2.628-.063-3.938-.05-1.252.013-2.506.01-3.758.058C262.058,1584.679,261.892,1584.626,261.947,1584.309Z" transform="translate(-208.45 -159.35)" fill="#fefefe"/>
    <path id="Path_4995" data-name="Path 4995" d="M194.613,1546.066a26.96,26.96,0,0,1-7.277,2.44c-1.782.338-3.575.573-5.373.778-.59.067-1.188.071-1.782.1-.141.043-.288.119-.38-.077a1.11,1.11,0,0,1,.757-.206,41.576,41.576,0,0,0,5.006-.633,20.446,20.446,0,0,0,6.661-2.267,12.234,12.234,0,0,0,1.427-1c.127-.1.237-.235.426-.214A8.582,8.582,0,0,1,194.613,1546.066Z" transform="translate(-133.69 -125.33)" fill="#393a3c"/>
    <path id="Path_4996" data-name="Path 4996" d="M179.517,1540.556a14.7,14.7,0,0,1-6.43,3.141,35.114,35.114,0,0,1-6.1.995c-.577.046-1.152.118-1.727.178a4.333,4.333,0,0,1-1.333.139c-.09-.069-.179-.139-.085-.266a6.053,6.053,0,0,1,1.493-.176c.825-.095,1.655-.161,2.48-.262a11.7,11.7,0,0,0,1.358-.166c.58-.05,1.148-.187,1.727-.249.108.047.2.065.195-.1a4.014,4.014,0,0,0,1.151-.254.473.473,0,0,0,.643-.1,2.168,2.168,0,0,1,.615-.168c.159.041.306.046.4-.126.516-.226,1.047-.411,1.579-.6a.49.49,0,0,0,.341-.073c.494-.263.991-.52,1.483-.786.125-.068.282-.127.258-.322.192.107.305-.048.429-.138a9.225,9.225,0,0,0,1.291-1.1C179.391,1540.247,179.357,1540.453,179.517,1540.556Z" transform="translate(-119.129 -120.901)" fill="#626365"/>
    <path id="Path_4997" data-name="Path 4997" d="M141.264,1605.688a.447.447,0,0,1,.464.27c-.161.026-.321-.078-.483-.005a3.113,3.113,0,0,0-1.135.3,3.7,3.7,0,0,0-1.414.852c-.267.417-.078.769.159,1.112a6.177,6.177,0,0,0,1.2,1.26,3.35,3.35,0,0,1,.21,4.671c-.088.1-.181.2-.337.181-.1.031-.193.045-.191-.108a3.773,3.773,0,0,0,.993-1.671,2.731,2.731,0,0,0-.729-2.594c-.421-.481-.893-.919-1.324-1.392a1.37,1.37,0,0,1-.477-1.43.116.116,0,0,1-.011-.114c.1-.124.179-.269.277-.4a4.149,4.149,0,0,1,1.134-.559c.061-.017.123-.03.185-.044s.121-.046.18-.072A2.486,2.486,0,0,1,141.264,1605.688Z" transform="translate(-95.77 -180.561)" fill="#090a09"/>
    <path id="Path_4998" data-name="Path 4998" d="M218.436,1644.526a5.352,5.352,0,0,0-2.214-2.785,14.739,14.739,0,0,0-4.79-2.059c-.487-.135-.963-.311-1.444-.469-.019-.083.033-.12.1-.149a.409.409,0,0,1,.133-.018,4.68,4.68,0,0,1,.651.154,34.353,34.353,0,0,1,3.819,1.272,4.2,4.2,0,0,1,.676.346,2.021,2.021,0,0,0,.328.2,5.477,5.477,0,0,1,1.079.718c.061.057.128.106.194.157a6.223,6.223,0,0,1,1.587,2.012.592.592,0,0,1,.087.507C218.6,1644.49,218.542,1644.554,218.436,1644.526Z" transform="translate(-161.163 -210.946)" fill="#eff1f1"/>
    <path id="Path_4999" data-name="Path 4999" d="M105.047,1603.749a5.047,5.047,0,0,1-.1-1.367,1.362,1.362,0,0,1,1.769.472,1.052,1.052,0,0,1-.028.8,3.371,3.371,0,0,1-1.406.258A.243.243,0,0,1,105.047,1603.749Z" transform="translate(-65.554 -177.447)" fill="#fbfcfc"/>
    <path id="Path_5000" data-name="Path 5000" d="M106.747,1597.482c-.433-.629-1.079-.5-1.694-.473l.009-.094c.409-.059.829.014,1.142-.027a7.2,7.2,0,0,1-1.146-.034v-.275a.972.972,0,0,1,.751-.188,7.214,7.214,0,0,1,1.884.027c.2.166.038.323-.02.477a4.818,4.818,0,0,1-.223.434,2.006,2.006,0,0,0-.129.965.492.492,0,0,1-.085.26c-.244.112-.287-.069-.312-.233a2.209,2.209,0,0,1-.006-.756C106.981,1597.24,106.765,1597.58,106.747,1597.482Z" transform="translate(-65.655 -172.075)" fill="#5d6461"/>
    <path id="Path_5001" data-name="Path 5001" d="M211.738,1710.267a5.956,5.956,0,0,0,1.125-1.023.954.954,0,0,1,.341-.248c.2.149.493.059.656.282.026.218-.175.348-.208.543l-.5.651C212.667,1710.513,212.165,1710.65,211.738,1710.267Z" transform="translate(-162.76 -274.616)" fill="#edbb22"/>
    <path id="Path_5002" data-name="Path 5002" d="M143.258,1628.147a3.6,3.6,0,0,0,1-3.447,2.442,2.442,0,0,0-.768-1.183,12.325,12.325,0,0,1-1.44-1.527.861.861,0,0,1-.059-1.139c.09-.027.114.012.094.094a.875.875,0,0,0,.119.959,7.453,7.453,0,0,0,1.1,1.176,3.464,3.464,0,0,1,.147,5.249C143.311,1628.339,143.234,1628.293,143.258,1628.147Z" transform="translate(-99.096 -194.377)" fill="#ececec"/>
    <path id="Path_5003" data-name="Path 5003" d="M332.692,1572c.226-.259.571.024.808-.178a.633.633,0,0,1,.634.178c.1.017.171.069.163.175a2,2,0,0,0,.179.974c-.42.2-.59-.175-.843-.36-.134-.2-.309-.123-.483-.076-.478.13-.5.112-.486-.4A1.419,1.419,0,0,1,332.692,1572Z" transform="translate(-272.825 -149.743)" fill="#525554"/>
    <path id="Path_5004" data-name="Path 5004" d="M106.569,1560.891a1.827,1.827,0,0,1,1.438-.817c-.442.749-1.2,1.234-1.611,2-.06,0-.165.06-.135-.076A3.434,3.434,0,0,1,106.569,1560.891Z" transform="translate(-66.75 -139.065)" fill="#f5f6f5"/>
    <path id="Path_5005" data-name="Path 5005" d="M288.606,1672.913a5.753,5.753,0,0,0-1.537-2.272l-.217-.22c.088-.093.19-.056.291-.03a6.268,6.268,0,0,1,1.806,2.09Z" transform="translate(-231.13 -239.45)" fill="#0b0c0b"/>
    <path id="Path_5006" data-name="Path 5006" d="M335.813,1581.138c.262.153.459.429.805.419.056.152.282.342-.089.4a7,7,0,0,1-1.514-.651A.58.58,0,0,1,335.813,1581.138Z" transform="translate(-274.967 -158.152)" fill="#080b08"/>
    <path id="Path_5007" data-name="Path 5007" d="M106.113,1617.979a2.9,2.9,0,0,0,1.112-.06l.48-.042c.15.115.19.389.465.326a.124.124,0,0,1,.1.054,12.542,12.542,0,0,1-2.079.079Z" transform="translate(-66.62 -191.677)" fill="#bfc2bf"/>
    <path id="Path_5008" data-name="Path 5008" d="M107.815,1595.068a15.445,15.445,0,0,0-2.7.088q0-.135,0-.27l.7-.006c.773-.036,1.545-.09,2.318-.106C108.185,1595.043,108.005,1595.061,107.815,1595.068Z" transform="translate(-65.715 -170.65)" fill="#4e5150"/>
    <path id="Path_5009" data-name="Path 5009" d="M342.629,1568.546c-.2-.09-.448-.028-.634-.178.069-.227.381-.142.458-.358C342.756,1568.108,342.574,1568.366,342.629,1568.546Z" transform="translate(-281.32 -146.289)" fill="#39403b"/>
    <path id="Path_5010" data-name="Path 5010" d="M297.788,1499.151c-.367.059-.647,0-.641-.462A2.1,2.1,0,0,1,297.788,1499.151Z" transform="translate(-240.498 -83.193)" fill="#daf8e8"/>
    <path id="Path_5011" data-name="Path 5011" d="M105.084,1602.075h1.244v.062h-1.24A.112.112,0,0,1,105.084,1602.075Z" transform="translate(-65.681 -177.295)" fill="#3d4140"/>
    <path id="Path_5012" data-name="Path 5012" d="M251.744,1450.174c-.007.141-.021.3-.24.268-.132-.017-.3-.04-.28-.213s.2-.239.369-.261C251.747,1449.948,251.764,1450.04,251.744,1450.174Z" transform="translate(-198.698 -38.845)" fill="#d1f4e1"/>
    <path id="Path_5013" data-name="Path 5013" d="M271.916,1458.719a.269.269,0,0,1,.28.274c0,.085,0,.2-.119.19a.371.371,0,0,1-.356-.274C271.69,1458.783,271.826,1458.759,271.916,1458.719Z" transform="translate(-217.352 -46.813)" fill="#cdf6de"/>
    <path id="Path_5014" data-name="Path 5014" d="M328.317,1493.272a.259.259,0,0,1,.254.248c.009.127-.029.255-.17.255-.181,0-.22-.175-.262-.309S328.206,1493.294,328.317,1493.272Z" transform="translate(-268.699 -78.263)" fill="#c4f2d7"/>
    <path id="Path_5015" data-name="Path 5015" d="M321.55,1722.271c-.03.182-.167.223-.284.263a.179.179,0,0,1-.255-.158.2.2,0,0,1,.2-.24A.392.392,0,0,1,321.55,1722.271Z" transform="translate(-262.218 -286.572)" fill="#c4f2d6"/>
    <path id="Path_5016" data-name="Path 5016" d="M168.279,1457.865a1.025,1.025,0,0,1,.646-.834.317.317,0,0,1,.406.083c.086.139-.047.252-.148.331A2.022,2.022,0,0,1,168.279,1457.865Z" transform="translate(-123.203 -45.244)" fill="#daf4e5"/>
    <path id="Path_5017" data-name="Path 5017" d="M212.979,1757.5a.317.317,0,0,1,.277.3c.021.108-.031.172-.15.144-.144-.034-.3-.063-.323-.249C212.77,1757.572,212.857,1757.515,212.979,1757.5Z" transform="translate(-163.71 -318.768)" fill="#d4fae0"/>
    <path id="Path_5018" data-name="Path 5018" d="M223.879,1450.575c-.121-.033-.3-.047-.33-.218-.018-.094.084-.2.2-.207a.252.252,0,0,1,.3.255C224.057,1450.5,224.027,1450.585,223.879,1450.575Z" transform="translate(-173.508 -39.011)" fill="#c7f5da"/>
    <path id="Path_5019" data-name="Path 5019" d="M203.276,1451.714c.033.129-.076.125-.156.131-.147.01-.3.013-.347-.176a.172.172,0,0,1,.145-.228C203.114,1451.413,203.2,1451.548,203.276,1451.714Z" transform="translate(-154.594 -40.185)" fill="#c4f1d7"/>
    <path id="Path_5020" data-name="Path 5020" d="M307.055,1734.135c-.055.156-.194.162-.323.176-.112.012-.213-.011-.2-.161s.1-.242.265-.22A.261.261,0,0,1,307.055,1734.135Z" transform="translate(-249.042 -297.306)" fill="#d8f6e5"/>
    <path id="Path_5021" data-name="Path 5021" d="M203.955,1495.1a1.545,1.545,0,0,1,.168,2.538c-.187.112-.421.15-.552.35l.01.021a1.122,1.122,0,0,1-1.083-.023,2.169,2.169,0,0,1-.912-.917,1.659,1.659,0,0,1,.555-1.947,6.527,6.527,0,0,1,.749-.266A1.555,1.555,0,0,1,203.955,1495.1Z" transform="translate(-153.405 -79.685)" fill="#f8bc18"/>
    <path id="Path_5022" data-name="Path 5022" d="M210.863,1494.255c-.355.048-.644-.262-1.019-.169-.264.065-.5.276-.795.19A1.322,1.322,0,0,1,210.863,1494.255Z" transform="translate(-160.312 -78.839)" fill="#edca70"/>
    <path id="Path_5023" data-name="Path 5023" d="M213.027,1529.928l1.083.023a.494.494,0,0,1-.776.276C213.22,1530.151,213.076,1530.081,213.027,1529.928Z" transform="translate(-163.933 -111.627)" fill="#f8f6d5"/>
    <path id="Path_5024" data-name="Path 5024" d="M224.933,1526.321c-.042-.472.3-.337.552-.35A.5.5,0,0,1,224.933,1526.321Z" transform="translate(-174.767 -108.018)" fill="#ebc94f"/>
    <path id="Path_5025" data-name="Path 5025" d="M230.325,1689.08l-.029.084c-.128.074-.242.172-.377.236a.562.562,0,0,1-.506-.131c-.221-.04-.159-.166-.088-.293a3.248,3.248,0,0,0,.352-1.235c.055-.448.421-.118.632-.194.373.237.25.6.179.9C230.439,1688.659,230.38,1688.871,230.325,1689.08Z" transform="translate(-178.708 -255.05)" fill="#f5bb1c"/>
    <path id="Path_5026" data-name="Path 5026" d="M228.794,1672.826c-.778.1-1.085-.106-1.3-.834-.052-.175.02-.212.15-.236a.731.731,0,0,1,.815.4A1.845,1.845,0,0,1,228.794,1672.826Z" transform="translate(-177.083 -240.705)" fill="#efbc26"/>
    <path id="Path_5027" data-name="Path 5027" d="M211.214,1660.932c-.806.263-1.2-.424-1.842-.644C210.1,1660.1,210.447,1660.231,211.214,1660.932Z" transform="translate(-160.606 -230.212)" fill="#d8b038"/>
    <path id="Path_5028" data-name="Path 5028" d="M183.742,1625.867l-.113.1a7.812,7.812,0,0,1-2.1-.9,1.026,1.026,0,0,1-.5-.531.163.163,0,0,1,.183-.03,7.508,7.508,0,0,0,2.24,1.124C183.564,1625.688,183.712,1625.7,183.742,1625.867Z" transform="translate(-134.805 -197.699)" fill="#d4d5d5"/>
    <path id="Path_5029" data-name="Path 5029" d="M179.246,1610.812l-.163-.008c-.268-.061-.163-.278-.177-.439-.015-.178-.011-.358-.015-.537.133-.118.023-.456.227-.422.275.046.114.346.136.531.031.265.02.535.027.8A.054.054,0,0,1,179.246,1610.812Z" transform="translate(-132.863 -183.966)" fill="#858385"/>
    <path id="Path_5030" data-name="Path 5030" d="M196.149,1653.321a2.184,2.184,0,0,1-1.717-.38C195.074,1652.768,195.539,1653.1,196.149,1653.321Z" transform="translate(-147.008 -223.55)" fill="#d4b34c"/>
    <path id="Path_5031" data-name="Path 5031" d="M169.664,1639.843c-.471.144-.767-.138-1.144-.419C169.057,1639.293,169.311,1639.69,169.664,1639.843Z" transform="translate(-123.423 -211.266)" fill="#bea256"/>
    <path id="Path_5032" data-name="Path 5032" d="M228.325,1707.059c.188-.066.331.133.516.088a.286.286,0,0,1,.281.061c-.039.14-.284.1-.261.292a.134.134,0,0,1-.184-.009c-.223-.048-.464-.056-.614-.271C228.175,1707.205,228.313,1707.234,228.325,1707.059Z" transform="translate(-177.62 -272.839)" fill="#211204"/>
    <path id="Path_5033" data-name="Path 5033" d="M144.033,1612.6l-.094-.094a2.967,2.967,0,0,1,1.43-.811.1.1,0,0,1,.146.022A5.9,5.9,0,0,0,144.033,1612.6Z" transform="translate(-101.049 -186.027)" fill="#979893"/>
    <path id="Path_5034" data-name="Path 5034" d="M183.072,1647.158a1.423,1.423,0,0,1-1.213-.289C182.34,1646.708,182.641,1646.982,183.072,1647.158Z" transform="translate(-135.564 -218.022)" fill="#c3ab5f"/>
    <path id="Path_5035" data-name="Path 5035" d="M240.966,1689.354a1.186,1.186,0,0,1,.12-.717.762.762,0,0,0-.136-.816c.224-.068.3.045.3.248A2.115,2.115,0,0,1,240.966,1689.354Z" transform="translate(-189.349 -255.323)" fill="#dbbb51"/>
    <path id="Path_5036" data-name="Path 5036" d="M161.067,1633.132c.456-.083.558.235.855.361C161.45,1633.684,161.329,1633.36,161.067,1633.132Z" transform="translate(-116.639 -205.551)" fill="#c7a755"/>
    <path id="Path_5037" data-name="Path 5037" d="M160.015,1608.969l-.146-.022a1.969,1.969,0,0,1,1.155-.271Z" transform="translate(-115.549 -183.284)" fill="#7a777a"/>
    <path id="Path_5038" data-name="Path 5038" d="M166.045,1615.262a.714.714,0,0,1,.63-.249A.58.58,0,0,1,166.045,1615.262Z" transform="translate(-121.17 -189.072)" fill="#574f3e"/>
    <path id="Path_5039" data-name="Path 5039" d="M233.035,1712.006l.184.01a.924.924,0,0,1-.349.545C232.79,1712.336,232.995,1712.2,233.035,1712.006Z" transform="translate(-181.977 -277.355)" fill="#d4b043"/>
    <path id="Path_5040" data-name="Path 5040" d="M159.208,1627.974c.149,0,.189.13.225.232.029.083-.048.132-.129.119-.137-.022-.176-.137-.2-.252C159.085,1627.992,159.153,1627.986,159.208,1627.974Z" transform="translate(-114.848 -200.868)" fill="#af9962"/>
    <path id="Path_5041" data-name="Path 5041" d="M237,1706.251a.225.225,0,0,1-.281-.061c.046-.208.206-.2.366-.193Z" transform="translate(-185.498 -271.882)" fill="#d8aa46"/>
    <path id="Path_5042" data-name="Path 5042" d="M257.35,1535.634a3.033,3.033,0,0,1-1.579.6c-.183-.344-.351-.7-.826-.71a.319.319,0,0,1-.265-.218,1.567,1.567,0,0,0-.727-.7c-.093-.05-.274-.1-.177-.251.363-.573.513-1.274,1.084-1.725.2-.161.335-.121.407.067a6.05,6.05,0,0,1,.706,1.691,1.436,1.436,0,0,0,.535.953c.125-.09.015-.228.1-.344A1.474,1.474,0,0,1,257.35,1535.634Z" transform="translate(-200.998 -113.994)" fill="#fdfdfd"/>
    <path id="Path_5043" data-name="Path 5043" d="M166.7,1565.2a31.423,31.423,0,0,1-4.04.352c-.125-.054-.187-.129-.09-.26a2.194,2.194,0,0,0,.849-.708,1.454,1.454,0,0,1,.829-.638c.307-.073.32-.365.422-.586a.549.549,0,0,1,.889-.28c.355.221.362.611-.04.736-.541.169-.642.627-.864,1.029a6.533,6.533,0,0,0,1.432-.941,1.32,1.32,0,0,1,1.032-.308C166.743,1564.071,166.9,1564.684,166.7,1565.2Z" transform="translate(-117.96 -141.685)" fill="#fbfbfb"/>
    <path id="Path_5044" data-name="Path 5044" d="M208.927,1571.644c0-.251.02-.5-.005-.752a.838.838,0,0,1,.424-.853l.482-.009c.588.239.743.73.451,1.433A5.076,5.076,0,0,1,208.927,1571.644Z" transform="translate(-160.191 -148.128)" fill="#242022"/>
    <path id="Path_5045" data-name="Path 5045" d="M235.625,1564.153a1.077,1.077,0,0,1-1.151.254c-.134-.314-.263-.625-.659-.7a.45.45,0,0,1-.381-.437c0-.254.24-.349.44-.451.228-.116.529.012.557.128C234.592,1563.6,235.156,1563.824,235.625,1564.153Z" transform="translate(-182.508 -141.521)" fill="#f9f9f9"/>
    <path id="Path_5046" data-name="Path 5046" d="M219.518,1571.463a4.345,4.345,0,0,1,0-.531.839.839,0,0,0-.455-.9,1.522,1.522,0,0,1,1.186.456,4.828,4.828,0,0,0,.949.631A4.273,4.273,0,0,1,219.518,1571.463Z" transform="translate(-169.431 -148.128)" fill="#f8f8f8"/>
    <path id="Path_5047" data-name="Path 5047" d="M251.867,1563.417a.538.538,0,0,1-.615.168,1.7,1.7,0,0,0-1.006-.684.48.48,0,0,1-.287-.2.286.286,0,0,1,.014-.37c.1-.165.215-.015.29.032C250.8,1562.709,251.334,1563.065,251.867,1563.417Z" transform="translate(-197.493 -141.055)" fill="#f4f4f4"/>
    <path id="Path_5048" data-name="Path 5048" d="M152.409,1586.121l.256-.267a.927.927,0,0,1,.555.292c.065.359-.274.345-.447.485a.274.274,0,0,1-.2-.021C152.409,1586.482,152.3,1586.338,152.409,1586.121Z" transform="translate(-108.717 -162.53)" fill="#1e864c"/>
    <path id="Path_5049" data-name="Path 5049" d="M156.976,1589.465c.038-.256.444-.138.442-.435l.1-.007a.254.254,0,0,0,.09.26l.082.18c-.149.152-.339.077-.513.092A.253.253,0,0,1,156.976,1589.465Z" transform="translate(-112.915 -165.415)" fill="#427d5c"/>
    <path id="Path_5050" data-name="Path 5050" d="M128.76,1616.052l-.124-.021a.049.049,0,0,1,.013-.083l.028-.284a.69.69,0,0,1,.9-.083.356.356,0,0,1-.008.393.08.08,0,0,1-.032.073Z" transform="translate(-87.106 -189.473)" fill="#b9b9b9"/>
    <path id="Path_5051" data-name="Path 5051" d="M259.705,1626.537a.173.173,0,0,0,.087,0,1.349,1.349,0,0,1,1.45.169l.147.011c.13.088.116.286.421.249.337-.04.559.389.813.641s.163.6.25.9c.022.075-.078.188-.2.2a.706.706,0,0,1-.507-.014.47.47,0,0,0-.452.046,4,4,0,0,1-1.225.014.218.218,0,0,1-.116-.067,1.677,1.677,0,0,1-.106-.577c.04-.35-.184-.246-.368-.21-.3.015-.624.067-.72-.335A1.092,1.092,0,0,1,259.705,1626.537Z" transform="translate(-205.928 -199.428)" fill="#0f964a"/>
    <path id="Path_5052" data-name="Path 5052" d="M285.34,1651.054c.335-.237.663.062,1,.012a.534.534,0,0,1-.544.025c-.085-.04-.183-.082-.245-.014-.084.093-.076.17.084.207.063.015-.033.115-.05.178a1.633,1.633,0,0,0,.025,1.271l-.291.03a.139.139,0,0,1-.152-.091c.067-.117-.005-.246.03-.366a7.187,7.187,0,0,0,.005-.826C285.192,1651.321,285.172,1651.156,285.34,1651.054Z" transform="translate(-229.591 -221.792)" fill="#46906b"/>
    <path id="Path_5053" data-name="Path 5053" d="M224.423,1625.642c.145.2.015.426.08.632a.393.393,0,0,1-.008.56c-.348.094-.594-.155-.866-.282a28.712,28.712,0,0,0-3.67-1.273.508.508,0,0,1-.162-.123.649.649,0,0,1,.265-.85,3.917,3.917,0,0,0,.623-.549,5.82,5.82,0,0,1,2.031.179l.443.007c.18.185.466-.007.645.181-.313.221-.308.6-.448.911-.074.164.066.31.257.334.146.018.295.012.442.017A.518.518,0,0,1,224.423,1625.642Z" transform="translate(-170.028 -197.013)" fill="#fcfdfd"/>
    <path id="Path_5054" data-name="Path 5054" d="M267.6,1623.343a2.789,2.789,0,0,0-1.45-.169.664.664,0,0,1,1.091-.293C267.388,1623.014,267.629,1623.075,267.6,1623.343Z" transform="translate(-212.286 -196.066)" fill="#1c7843"/>
    <path id="Path_5055" data-name="Path 5055" d="M191,1606.932c-.722.07-1.434-.136-2.155-.076-.064.091.027.288-.188.277-.122-.113-.088-.277-.138-.412-.116-.307-.3-.554-.674-.541a.825.825,0,0,1-.265-.015c-.618-.179-.65-.166-.972.4-.06.1-.111.213-.243.243a4.528,4.528,0,0,0-1.345.063c-.079.012-.135-.009-.143-.1.1-.281.126-.6.381-.8a.335.335,0,0,1,.191-.179,3.188,3.188,0,0,1,.775-.271c1.308-.105,2.617-.2,3.929-.233a.992.992,0,0,0,.747-.225c.213.235.047.509.072.763C191.009,1606.189,190.995,1606.562,191,1606.932Z" transform="translate(-138.313 -180.01)" fill="#bbb9b8"/>
    <path id="Path_5056" data-name="Path 5056" d="M203.786,1595.882c0,.159.047.337-.217.348-1.512.061-3.023.128-4.535.193-.017-.264.23-.263.371-.363.18-.128.378-.231.567-.347.253-.148.464-.358.721-.5.5-.175,1.041-.092,1.549-.225a.324.324,0,0,1,.29.069C203.127,1595.061,203.42,1595.528,203.786,1595.882Z" transform="translate(-151.196 -170.834)" fill="#fcfcfc"/>
    <path id="Path_5057" data-name="Path 5057" d="M258.925,1574.715a1.191,1.191,0,0,0-.8.167,8.626,8.626,0,0,0-1.812.223c-1.008.124-2.012.274-3.018.413-.1.109-.276.069-.381.177a1.8,1.8,0,0,0-.976,0,7.372,7.372,0,0,1-1.4,0,41.918,41.918,0,0,0,7.4-1.711,1.114,1.114,0,0,1,.074.7c.278.006.5-.222.794-.165C258.971,1574.549,258.974,1574.6,258.925,1574.715Z" transform="translate(-198.078 -151.728)" fill="#3a3a3c"/>
    <path id="Path_5058" data-name="Path 5058" d="M131.23,1595.4c.117-.061.2-.191.346-.192a.278.278,0,0,1,.263-.058c.068.03.121.07.1.157l.364.354c.05.048.119.077.152.143.122.584-.063.747-.7.622-.252-.1-.519.018-.773-.051a.184.184,0,0,1-.133-.133A2.879,2.879,0,0,1,131.23,1595.4Z" transform="translate(-89.13 -170.981)" fill="#17934d"/>
    <path id="Path_5059" data-name="Path 5059" d="M185.959,1599.106c-.124-.039-.264-.067-.182-.254.185-.28.258-.663.674-.731.408.01.819-.189,1.224.019.068.185-.07.253-.188.331a1.563,1.563,0,0,0-.7.4A8.189,8.189,0,0,1,185.959,1599.106Z" transform="translate(-139.108 -173.627)" fill="#090507"/>
    <path id="Path_5060" data-name="Path 5060" d="M158.075,1600.833l-1.343.375c-.264-.586-.113-.85.51-.857a1.309,1.309,0,0,1,.654.041c.085.069.072.208.207.251C158.425,1600.746,158.06,1600.764,158.075,1600.833Z" transform="translate(-112.58 -175.706)" fill="#eaecec"/>
    <path id="Path_5061" data-name="Path 5061" d="M190.671,1593.785a1.98,1.98,0,0,0-1.276-.009c-.11-.073-.343.1-.353-.175,1.656-.041,3.3-.276,4.989-.436-.173.262-.445.075-.593.241a8.392,8.392,0,0,0-1.882.288c-.14-.013-.279.02-.418.021C190.977,1593.709,190.837,1593.84,190.671,1593.785Z" transform="translate(-142.101 -169.186)" fill="#3c3c3b"/>
    <path id="Path_5062" data-name="Path 5062" d="M142.116,1593.3l-.089-.09a1.777,1.777,0,0,1,1.093-.165c.144,0,.287.063.429-.014l.538-.008c.456.063.9-.133,1.353-.08.1.128.236.07.359.088a.66.66,0,0,1-.2.082C144.44,1593.184,143.278,1593.243,142.116,1593.3Z" transform="translate(-99.309 -168.98)" fill="#444647"/>
    <path id="Path_5063" data-name="Path 5063" d="M185.513,1605.651c.192-.337.541-.191.818-.266.106-.163.225-.216.368-.041-.026.311-.333.319-.51.465-.119.1-.28.136-.4.231-.032.083-.111.072-.176.087-.121-.045-.3.033-.341-.178S185.487,1605.795,185.513,1605.651Z" transform="translate(-138.661 -180.172)" fill="#150f0a"/>
    <path id="Path_5064" data-name="Path 5064" d="M183.019,1624.106l.106.068a6.544,6.544,0,0,0,1.815.788.594.594,0,0,1,.369.225c.024.158-.039.226-.2.194a8.092,8.092,0,0,1-1.935-.849.8.8,0,0,1-.339-.336.1.1,0,0,0,.036-.071Z" transform="translate(-136.452 -197.348)" fill="#0e0e0f"/>
    <path id="Path_5065" data-name="Path 5065" d="M176.911,1598.99a1.022,1.022,0,0,0-.182.618c-.015.182-.1.2-.227.089-.089-.078-.17-.164-.253-.248s-.173-.173-.119-.308a.273.273,0,0,1,.293-.153h.488Z" transform="translate(-130.333 -174.485)" fill="#535354"/>
    <path id="Path_5066" data-name="Path 5066" d="M149.211,1599.217l-.534.034c-.729.045-.729.045-.63.782a.08.08,0,0,1-.109.064c-.179-.175.005-.465-.2-.629-.173-.087-.394,0-.547-.153l-.121-.106c.693-.176,1.413.005,2.107-.164.07-.017.159-.012.171.083C149.347,1599.152,149.258,1599.188,149.211,1599.217Z" transform="translate(-103.895 -174.532)" fill="#434745"/>
    <path id="Path_5067" data-name="Path 5067" d="M185.359,1597.991c.074.147.282.023.353.175-.287.134-.35.488-.624.635l-.091-.721h0C185.092,1597.945,185.234,1598,185.359,1597.991Z" transform="translate(-138.419 -173.575)" fill="#535354"/>
    <path id="Path_5068" data-name="Path 5068" d="M117.036,1593.027c-.313.182-.656.042-.981.089-.181.026-.383-.071-.541.09l-.273-.01c-.26-.192-.517.007-.775.006l-1.568,0a29.557,29.557,0,0,1,3.206-.19.523.523,0,0,1,.575.011l.177,0Z" transform="translate(-72.795 -168.971)" fill="#5d6461"/>
    <path id="Path_5069" data-name="Path 5069" d="M149.177,1589.291l-.575-.011.383-.45C148.939,1589.029,149.16,1589.117,149.177,1589.291Z" transform="translate(-105.293 -165.239)" fill="#427d5c"/>
    <path id="Path_5070" data-name="Path 5070" d="M276.988,1591.011c-.018-.372.265-.093.381-.177l.193.467Z" transform="translate(-222.15 -167.043)" fill="#1d1d1f"/>
    <path id="Path_5071" data-name="Path 5071" d="M140.369,1602.127l.679.016c.034.263.158.537-.087.769l-1.168.566c-.366-.237-.187-.525-.074-.806C140.278,1602.831,140.283,1602.828,140.369,1602.127Z" transform="translate(-97.077 -177.342)" fill="#effaf4"/>
    <path id="Path_5072" data-name="Path 5072" d="M132.748,1607.749c.15.257-.191.559.074.806-.035.156-.072.31-.251.366l-.039-.4c-.013-.414-.39-.544-.616-.792A2.992,2.992,0,0,1,132.748,1607.749Z" transform="translate(-90.105 -182.419)" fill="#579877"/>
    <path id="Path_5073" data-name="Path 5073" d="M155.014,1603.069c.146-.243.061-.512.087-.769.193.24.077.508.071.766Z" transform="translate(-111.13 -177.5)" fill="#eaecec"/>
    <path id="Path_5074" data-name="Path 5074" d="M202.157,1616.273a.184.184,0,0,0,.164-.2.334.334,0,0,1-.106-.24c.011-.29-.062-.48-.408-.5a.227.227,0,0,1-.212-.345c.114-.22.153-.491.366-.645s.44-.395.729-.093c.045.047.151.1.194.077.3-.148.5.012.7.2a.979.979,0,0,1,.251.813c-.008.065-.044.128-.1.128-.266,0-.456.082-.5.381a.155.155,0,0,1-.159.129c-.07,0-.088-.071-.114-.124-.059-.12,0-.351-.229-.314s-.205.254-.2.433a.974.974,0,0,1,0,.133c-.107.083.062.212-.049.294a.123.123,0,0,1-.057.014Z" transform="translate(-153.5 -188.242)" fill="#147d41"/>
    <path id="Path_5075" data-name="Path 5075" d="M219.325,1639.592a18.37,18.37,0,0,1,4.463,1.646c.077.023.132.081.084.148-.067.1-.166.067-.254.01a26.786,26.786,0,0,0-4.581-1.634C219.041,1639.552,219.158,1639.529,219.325,1639.592Z" transform="translate(-169.403 -211.415)" fill="#0c0d0c"/>
    <path id="Path_5076" data-name="Path 5076" d="M274.286,1660.719c.041.1.21.237-.067.256l-1.08-.736c0-.184.137-.142.243-.156A1.43,1.43,0,0,1,274.286,1660.719Z" transform="translate(-218.647 -230.094)" fill="#131815"/>
    <path id="Path_5077" data-name="Path 5077" d="M212.336,1636.475a.323.323,0,0,0-.288.17l-.639-.194c.03-.085-.125-.169,0-.254.323-.158.568.023.817.188Z" transform="translate(-162.415 -208.298)" fill="#101915"/>
    <path id="Path_5078" data-name="Path 5078" d="M270.594,1652.779c-.089.026-.2-.024-.266.085l-.277-.164c.089-.018.258.05.169-.158.154-.167.027-.38.091-.562l.095.021A1.729,1.729,0,0,1,270.594,1652.779Z" transform="translate(-215.836 -222.719)" fill="#3d6852"/>
    <path id="Path_5079" data-name="Path 5079" d="M124.246,1604.619a.124.124,0,0,1-.013.082c-.264.024-.49,0-.445-.359l.007-.791c.18-.118.02-.349.22-.544a6.6,6.6,0,0,1,.062,1.18C124.09,1604.342,123.968,1604.564,124.246,1604.619Z" transform="translate(-82.702 -178.144)" fill="#8a8a8c"/>
    <path id="Path_5080" data-name="Path 5080" d="M129.277,1607.459c.023.019.045.053.068.053.522,0,.653.28.549.739a2.71,2.71,0,0,0-.854.086c.05-.311-.153-.66.142-.933Z" transform="translate(-87.467 -182.146)" fill="#f4f8f6"/>
    <path id="Path_5081" data-name="Path 5081" d="M274.2,1652.529c-.267-.21-.125-.519-.188-.778a7.13,7.13,0,0,1,1.179-.02,5.452,5.452,0,0,0-.031.957c-.018.136.08.3-.079.4Z" transform="translate(-219.437 -222.469)" fill="#ebf5f0"/>
    <path id="Path_5082" data-name="Path 5082" d="M268.346,1641.06a.546.546,0,0,1-.366-.257.276.276,0,0,1,.383-.079C268.523,1640.828,268.4,1640.949,268.346,1641.06Z" transform="translate(-213.951 -212.431)" fill="#a8d8c1"/>
    <path id="Path_5083" data-name="Path 5083" d="M274.14,1641.2c-.057.053-.046.193-.17.16-.084-.022-.079-.114-.071-.184a.13.13,0,0,1,.151-.123C274.143,1641.055,274.178,1641.1,274.14,1641.2Z" transform="translate(-219.335 -212.769)" fill="#93e9b8"/>
    <path id="Path_5084" data-name="Path 5084" d="M211.679,1626.335l-.817-.188c-.167-.166-.087-.367-.058-.547.043-.272.3-.235.465-.214.307.039.087.329.176.426.016-.459.431-.4.762-.471l.2-.246c.108.215.067.388-.181.433C211.751,1625.612,211.721,1625.973,211.679,1626.335Z" transform="translate(-161.869 -198.247)" fill="#ecf8f4"/>
    <path id="Path_5085" data-name="Path 5085" d="M187.486,1623.016c0,.262.193.3.362.248.371-.117.378.1.375.352,0,.162-.007.324-.011.486a9.581,9.581,0,0,1-1.644-.575,1.113,1.113,0,0,1-.5-.428c.019-.07.032-.162.12-.16A4.1,4.1,0,0,1,187.486,1623.016Z" transform="translate(-139.39 -196.273)" fill="#eef4f1"/>
    <path id="Path_5086" data-name="Path 5086" d="M191.08,1603.94c.242-.286.618-.391.877-.654.128-.065.19-.2.313-.276a.4.4,0,0,1,.5.011l-.973.639C191.536,1603.7,191.369,1603.977,191.08,1603.94Z" transform="translate(-143.957 -178.071)" fill="#242021"/>
    <path id="Path_5087" data-name="Path 5087" d="M203.481,1598.443a1,1,0,0,0-.564.107c-.149-.114-.016-.164.051-.229a3.353,3.353,0,0,0,.666-.4c.167.008.351-.087.489.085A2.138,2.138,0,0,1,203.481,1598.443Z" transform="translate(-154.67 -173.493)" fill="#25221e"/>
    <path id="Path_5088" data-name="Path 5088" d="M197.778,1602.086c-.015.066-.1.119-.037.2-.077.062-.057.275-.248.158-.11-.162-.221-.039-.331,0,.038-.377.4-.3.611-.441.032.017.044.036.034.055S197.788,1602.086,197.778,1602.086Z" transform="translate(-149.493 -177.227)" fill="#49471f"/>
    <path id="Path_5089" data-name="Path 5089" d="M203.968,1598.544a.382.382,0,0,1,0-.085l.289-.173.4-.176A1.027,1.027,0,0,1,203.968,1598.544Z" transform="translate(-155.683 -173.685)" fill="#908e65"/>
  </g>
</svg>
