<svg xmlns="http://www.w3.org/2000/svg" width="24" height="24" viewBox="0 0 24 24">
  <g id="Group_26072" data-name="Group 26072" transform="translate(-281 -303)">
    <g id="eye" transform="translate(282.853 210.591)">
      <path id="Path_7657" data-name="Path 7657" d="M10.131,98.725c-3.871,0-7.382,2.118-9.973,5.558a.8.8,0,0,0,0,.957c2.591,3.444,6.1,5.563,9.973,5.563s7.382-2.118,9.973-5.558a.8.8,0,0,0,0-.957C17.514,100.843,14,98.725,10.131,98.725Zm.278,10.292a4.262,4.262,0,1,1,3.975-3.975A4.264,4.264,0,0,1,10.409,109.017Zm-.128-1.965a2.295,2.295,0,1,1,2.143-2.143A2.291,2.291,0,0,1,10.281,107.052Z" fill="#282a3b"/>
    </g>
    <rect id="Rectangle_20206" data-name="Rectangle 20206" width="24" height="24" transform="translate(281 303)" fill="none"/>
  </g>
</svg>
